<svg width="200" height="120" viewBox="0 0 274 120" fill="none" xmlns="http://www.w3.org/2000/svg">
<g filter="url(#filter0_d_13_717)">
<rect x="30" y="20" width="214" height="60" rx="10" fill="#9166F0"/>
</g>
<path d="M113.24 56L112.06 52.76H106.3L105.12 56H102.2L107.64 41.82H110.84L116.24 56H113.24ZM109.18 44.88L107.22 50.24H111.14L109.18 44.88ZM120.475 59.8H117.815V46.16H120.395V47.36C120.635 46.96 121.021 46.6267 121.555 46.36C122.088 46.08 122.708 45.94 123.415 45.94C124.815 45.94 125.921 46.42 126.735 47.38C127.548 48.3267 127.955 49.5533 127.955 51.06C127.955 52.5667 127.521 53.8067 126.655 54.78C125.801 55.7533 124.688 56.24 123.315 56.24C122.008 56.24 121.061 55.84 120.475 55.04V59.8ZM124.635 53.12C125.101 52.6133 125.335 51.9333 125.335 51.08C125.335 50.2267 125.101 49.5533 124.635 49.06C124.181 48.5667 123.601 48.32 122.895 48.32C122.188 48.32 121.601 48.5733 121.135 49.08C120.668 49.5733 120.435 50.24 120.435 51.08C120.435 51.92 120.668 52.5933 121.135 53.1C121.601 53.6067 122.188 53.86 122.895 53.86C123.601 53.86 124.181 53.6133 124.635 53.12ZM132.721 59.8H130.061V46.16H132.641V47.36C132.881 46.96 133.267 46.6267 133.801 46.36C134.334 46.08 134.954 45.94 135.661 45.94C137.061 45.94 138.167 46.42 138.981 47.38C139.794 48.3267 140.201 49.5533 140.201 51.06C140.201 52.5667 139.767 53.8067 138.901 54.78C138.047 55.7533 136.934 56.24 135.561 56.24C134.254 56.24 133.307 55.84 132.721 55.04V59.8ZM136.881 53.12C137.347 52.6133 137.581 51.9333 137.581 51.08C137.581 50.2267 137.347 49.5533 136.881 49.06C136.427 48.5667 135.847 48.32 135.141 48.32C134.434 48.32 133.847 48.5733 133.381 49.08C132.914 49.5733 132.681 50.24 132.681 51.08C132.681 51.92 132.914 52.5933 133.381 53.1C133.847 53.6067 134.434 53.86 135.141 53.86C135.847 53.86 136.427 53.6133 136.881 53.12ZM144.967 56H142.307V41.52H144.967V56ZM149.755 49.96H154.155C154.128 49.4133 153.928 48.9533 153.555 48.58C153.195 48.2067 152.661 48.02 151.955 48.02C151.315 48.02 150.795 48.22 150.395 48.62C149.995 49.02 149.781 49.4667 149.755 49.96ZM154.415 52.52L156.635 53.18C156.368 54.0867 155.841 54.8333 155.055 55.42C154.281 56.0067 153.315 56.3 152.155 56.3C150.741 56.3 149.541 55.8267 148.555 54.88C147.568 53.92 147.075 52.64 147.075 51.04C147.075 49.52 147.555 48.28 148.515 47.32C149.475 46.3467 150.608 45.86 151.915 45.86C153.435 45.86 154.621 46.3133 155.475 47.22C156.341 48.1267 156.775 49.3733 156.775 50.96C156.775 51.0667 156.768 51.1867 156.755 51.32C156.755 51.4533 156.755 51.56 156.755 51.64L156.735 51.78H149.695C149.721 52.42 149.975 52.9533 150.455 53.38C150.935 53.8067 151.508 54.02 152.175 54.02C153.308 54.02 154.055 53.52 154.415 52.52ZM173.551 45.2L171.071 45.96C170.977 45.4533 170.724 44.9933 170.311 44.58C169.897 44.1667 169.291 43.96 168.491 43.96C167.837 43.96 167.304 44.14 166.891 44.5C166.477 44.8467 166.271 45.2667 166.271 45.76C166.271 46.6267 166.784 47.16 167.811 47.36L169.791 47.74C171.044 47.98 172.017 48.48 172.711 49.24C173.404 50 173.751 50.8933 173.751 51.92C173.751 53.0933 173.284 54.12 172.351 55C171.431 55.8667 170.191 56.3 168.631 56.3C167.737 56.3 166.931 56.1667 166.211 55.9C165.491 55.6333 164.911 55.28 164.471 54.84C164.031 54.3867 163.684 53.9133 163.431 53.42C163.191 52.9133 163.044 52.3933 162.991 51.86L165.551 51.18C165.617 51.94 165.911 52.5733 166.431 53.08C166.964 53.5867 167.704 53.84 168.651 53.84C169.371 53.84 169.931 53.68 170.331 53.36C170.744 53.04 170.951 52.62 170.951 52.1C170.951 51.6867 170.797 51.3333 170.491 51.04C170.197 50.7333 169.777 50.5267 169.231 50.42L167.251 50.02C166.104 49.78 165.197 49.3067 164.531 48.6C163.864 47.8933 163.531 47.0133 163.531 45.96C163.531 44.7067 164.011 43.6533 164.971 42.8C165.944 41.9467 167.111 41.52 168.471 41.52C169.284 41.52 170.011 41.6333 170.651 41.86C171.291 42.0867 171.804 42.3933 172.191 42.78C172.577 43.1533 172.877 43.54 173.091 43.94C173.304 44.34 173.457 44.76 173.551 45.2ZM179.259 43.22V46.16H181.239V48.52H179.259V52.64C179.259 53.0533 179.352 53.3467 179.539 53.52C179.725 53.6933 180.019 53.78 180.419 53.78C180.779 53.78 181.052 53.7533 181.239 53.7V55.9C180.852 56.06 180.352 56.14 179.739 56.14C178.779 56.14 178.019 55.8733 177.459 55.34C176.899 54.7933 176.619 54.0467 176.619 53.1V48.52H174.839V46.16H175.339C175.832 46.16 176.205 46.02 176.459 45.74C176.725 45.4467 176.859 45.0667 176.859 44.6V43.22H179.259ZM186.04 53.14C186.534 53.6333 187.127 53.88 187.82 53.88C188.514 53.88 189.1 53.6333 189.58 53.14C190.074 52.6467 190.32 51.96 190.32 51.08C190.32 50.2 190.074 49.5133 189.58 49.02C189.1 48.5267 188.514 48.28 187.82 48.28C187.127 48.28 186.534 48.5267 186.04 49.02C185.56 49.5133 185.32 50.2 185.32 51.08C185.32 51.96 185.56 52.6467 186.04 53.14ZM184.12 47.34C185.107 46.3533 186.34 45.86 187.82 45.86C189.3 45.86 190.527 46.3533 191.5 47.34C192.487 48.3267 192.98 49.5733 192.98 51.08C192.98 52.5867 192.487 53.8333 191.5 54.82C190.527 55.8067 189.3 56.3 187.82 56.3C186.34 56.3 185.107 55.8067 184.12 54.82C183.147 53.8333 182.66 52.5867 182.66 51.08C182.66 49.5733 183.147 48.3267 184.12 47.34ZM201.08 46.12V48.8C200.813 48.7467 200.547 48.72 200.28 48.72C199.52 48.72 198.907 48.94 198.44 49.38C197.973 49.8067 197.74 50.5133 197.74 51.5V56H195.08V46.16H197.66V47.62C198.14 46.5933 199.073 46.08 200.46 46.08C200.607 46.08 200.813 46.0933 201.08 46.12ZM204.794 49.96H209.194C209.167 49.4133 208.967 48.9533 208.594 48.58C208.234 48.2067 207.7 48.02 206.994 48.02C206.354 48.02 205.834 48.22 205.434 48.62C205.034 49.02 204.82 49.4667 204.794 49.96ZM209.454 52.52L211.674 53.18C211.407 54.0867 210.88 54.8333 210.094 55.42C209.32 56.0067 208.354 56.3 207.194 56.3C205.78 56.3 204.58 55.8267 203.594 54.88C202.607 53.92 202.114 52.64 202.114 51.04C202.114 49.52 202.594 48.28 203.554 47.32C204.514 46.3467 205.647 45.86 206.954 45.86C208.474 45.86 209.66 46.3133 210.514 47.22C211.38 48.1267 211.814 49.3733 211.814 50.96C211.814 51.0667 211.807 51.1867 211.794 51.32C211.794 51.4533 211.794 51.56 211.794 51.64L211.774 51.78H204.734C204.76 52.42 205.014 52.9533 205.494 53.38C205.974 53.8067 206.547 54.02 207.214 54.02C208.347 54.02 209.094 53.52 209.454 52.52Z" fill="white"/>
<path d="M81.7158 51.0175C81.6795 46.9748 85.0216 45.008 85.1744 44.9165C83.2817 42.1532 80.3481 41.7756 79.3171 41.7455C76.8532 41.4859 74.4631 43.2219 73.208 43.2219C71.9278 43.2219 69.9949 41.7706 67.9118 41.8132C65.2311 41.8546 62.7234 43.4088 61.3479 45.8221C58.5095 50.7428 60.6264 57.9741 63.346 61.9516C64.7063 63.9008 66.296 66.0745 68.3765 65.998C70.4121 65.9152 71.1724 64.6998 73.6289 64.6998C76.0627 64.6998 76.7768 65.998 78.8986 65.9491C81.0834 65.9152 82.4587 63.9924 83.7715 62.0268C85.3436 59.7954 85.9748 57.5953 86 57.4824C85.9498 57.4648 81.7584 55.8618 81.7158 51.0175ZM77.7074 39.129C78.8021 37.758 79.5513 35.8928 79.3433 34C77.7586 34.0702 75.777 35.0975 74.6358 36.4384C73.6261 37.62 72.7242 39.5567 72.9572 41.378C74.7374 41.5109 76.565 40.4786 77.7074 39.129Z" fill="white"/>
<defs>
<filter id="filter0_d_13_717" x="0" y="0" width="274" height="120" filterUnits="userSpaceOnUse" color-interpolation-filters="sRGB">
<feFlood flood-opacity="0" result="BackgroundImageFix"/>
<feColorMatrix in="SourceAlpha" type="matrix" values="0 0 0 0 0 0 0 0 0 0 0 0 0 0 0 0 0 0 127 0" result="hardAlpha"/>
<feOffset dy="10"/>
<feGaussianBlur stdDeviation="15"/>
<feColorMatrix type="matrix" values="0 0 0 0 0.568627 0 0 0 0 0.4 0 0 0 0 0.941176 0 0 0 0.35 0"/>
<feBlend mode="normal" in2="BackgroundImageFix" result="effect1_dropShadow_13_717"/>
<feBlend mode="normal" in="SourceGraphic" in2="effect1_dropShadow_13_717" result="shape"/>
</filter>
</defs>
</svg>
