<svg width="190" height="80" viewBox="0 0 244 110" fill="none" xmlns="http://www.w3.org/2000/svg">
<g filter="url(#filter0_d_16_209)">
<rect x="25" y="15" width="194" height="60" rx="10" fill="white"/>
</g>
<g clip-path="url(#clip0_16_209)">
<path d="M73.8629 42.657L77.6567 40.8304C78.1228 40.6059 78.6827 40.8019 78.9071 41.268C79.1315 41.7341 78.9356 42.294 78.4695 42.5184L74.6756 44.345C74.2199 44.5675 73.6504 44.3782 73.4252 43.9074C73.2008 43.4413 73.3968 42.8814 73.8629 42.657ZM69.1105 42.8988C69.4763 43.2646 70.0694 43.2646 70.4353 42.8988L76.571 36.7631C76.9368 36.3973 76.9368 35.8042 76.571 35.4384C76.2051 35.0725 75.612 35.0725 75.2462 35.4384L69.1105 41.5741C68.7447 41.9399 68.7447 42.533 69.1105 42.8988ZM78.0882 54.8417C78.0883 54.8415 78.0886 54.8412 78.089 54.8408C78.0888 54.841 78.0885 54.8414 78.0882 54.8417ZM78.0882 54.8417L78.088 54.8418C78.0881 54.8418 78.0881 54.8418 78.0882 54.8417ZM77.9097 49.8948C75.4893 47.5497 73.0227 46.3507 70.4959 48.728C70.4941 48.7297 70.4923 48.7315 70.4905 48.7333L69.224 49.9903C68.4326 49.5441 66.8457 48.4892 65.1829 46.8264C63.5198 45.1633 62.4647 43.5761 62.019 42.7854L63.2761 41.5189C63.2778 41.5171 63.2796 41.5153 63.2813 41.5135C65.6582 38.9848 64.4602 36.522 62.1145 34.0997C61.4702 33.4317 60.6046 33.0453 59.677 33.0118C58.7492 32.9785 57.8582 33.3014 57.1674 33.9215C52.6225 38.8573 55.9188 46.5219 60.681 51.3284C60.684 51.3314 60.687 51.3343 60.69 51.3373C61.3527 51.999 62.1052 52.6539 62.9268 53.2839C63.3374 53.5987 63.9254 53.5211 64.2402 53.1105C64.555 52.7 64.4774 52.1119 64.0668 51.7971C63.3063 51.214 62.6129 50.6105 62.0058 50.0035C62.0029 50.0006 62.0001 49.9978 61.9972 49.995C58.8177 46.8119 56.9096 42.9034 56.8928 39.538C56.884 37.7922 57.4093 36.3349 58.4118 35.322L58.4189 35.3156C59.0999 34.7045 60.1307 34.7416 60.7659 35.4003C63.1911 37.9153 63.0155 39.1027 61.9439 40.2016L60.2074 41.9511C59.9351 42.2255 59.8593 42.6389 60.0166 42.9921C61.4517 46.1784 65.904 50.5958 69.0173 51.9928C69.3705 52.15 69.784 52.0742 70.0583 51.8019L71.8075 50.0658C72.9067 48.9939 74.094 48.8181 76.6093 51.2434C77.2679 51.8786 77.305 52.9095 76.6934 53.5909L76.6872 53.5978C75.6743 54.6002 74.2181 55.1263 72.4714 55.1165C71.0911 55.1096 69.4926 54.7312 67.849 54.0223C67.3741 53.8174 66.8228 54.0364 66.6179 54.5115C66.413 54.9865 66.632 55.5377 67.107 55.7426C69.0069 56.5621 70.8085 56.9817 72.4621 56.99C74.7158 57.0044 76.7162 56.2171 78.0881 54.8418C78.7081 54.1511 79.0311 53.2599 78.9976 52.3324C78.9641 51.4047 78.5778 50.5391 77.9097 49.8948ZM68.1019 38.5841C68.5577 38.8065 69.1272 38.6173 69.3523 38.1464L71.179 34.3526C71.4034 33.8865 71.2074 33.3266 70.7413 33.1022C70.275 32.8778 69.7154 33.0738 69.4909 33.5399L67.6643 37.3337C67.4399 37.7998 67.6358 38.3596 68.1019 38.5841Z" fill="#FE6C9D"/>
</g>
<path d="M105.4 51.24C103.811 51.24 102.456 50.7013 101.336 49.624C100.227 48.5467 99.672 47.1173 99.672 45.336C99.672 43.5653 100.237 42.136 101.368 41.048C102.499 39.96 103.837 39.416 105.384 39.416C106.749 39.416 107.869 39.7627 108.744 40.456C109.629 41.1493 110.211 42.0293 110.488 43.096L108.68 43.704C108.499 42.968 108.131 42.3707 107.576 41.912C107.021 41.4533 106.291 41.224 105.384 41.224C104.371 41.224 103.491 41.5867 102.744 42.312C102.008 43.0267 101.64 44.0347 101.64 45.336C101.64 46.6053 102.008 47.6027 102.744 48.328C103.48 49.0427 104.365 49.4 105.4 49.4C106.285 49.4 107.016 49.16 107.592 48.68C108.168 48.2 108.563 47.608 108.776 46.904L110.536 47.48C110.259 48.536 109.672 49.4267 108.776 50.152C107.891 50.8773 106.765 51.24 105.4 51.24ZM111.579 48.888C111.579 48.2267 111.793 47.6987 112.219 47.304C112.657 46.8987 113.227 46.6427 113.931 46.536L115.931 46.232C116.315 46.1787 116.507 45.992 116.507 45.672C116.507 45.32 116.385 45.0373 116.139 44.824C115.894 44.6 115.526 44.488 115.035 44.488C114.566 44.488 114.193 44.6213 113.915 44.888C113.638 45.144 113.478 45.48 113.435 45.896L111.739 45.512C111.814 44.808 112.15 44.2107 112.747 43.72C113.345 43.2187 114.102 42.968 115.019 42.968C116.15 42.968 116.982 43.24 117.515 43.784C118.059 44.328 118.331 45.0267 118.331 45.88V49.752C118.331 50.264 118.363 50.68 118.427 51H116.699C116.646 50.84 116.619 50.5093 116.619 50.008C116.107 50.8293 115.307 51.24 114.219 51.24C113.43 51.24 112.79 51.0107 112.299 50.552C111.819 50.0827 111.579 49.528 111.579 48.888ZM114.571 49.784C115.147 49.784 115.611 49.6293 115.963 49.32C116.326 49 116.507 48.4827 116.507 47.768V47.416L114.475 47.72C113.782 47.8373 113.435 48.1893 113.435 48.776C113.435 49.0533 113.537 49.2933 113.739 49.496C113.942 49.688 114.219 49.784 114.571 49.784ZM122.431 51H120.575V39.416H122.431V51ZM126.681 51H124.825V39.416H126.681V51ZM140.34 50.136C139.55 50.872 138.537 51.24 137.3 51.24C136.062 51.24 135.049 50.872 134.26 50.136C133.47 49.4 133.076 48.3707 133.076 47.048V39.656H134.98V46.936C134.98 47.7253 135.182 48.3387 135.588 48.776C136.004 49.2027 136.574 49.416 137.3 49.416C138.036 49.416 138.606 49.2027 139.012 48.776C139.417 48.3493 139.62 47.736 139.62 46.936V39.656H141.54V47.048C141.54 48.3707 141.14 49.4 140.34 50.136ZM143.246 48.888L144.862 48.44C144.894 48.8133 145.049 49.128 145.326 49.384C145.604 49.64 145.977 49.768 146.446 49.768C146.809 49.768 147.092 49.6827 147.294 49.512C147.508 49.3413 147.614 49.128 147.614 48.872C147.614 48.424 147.31 48.136 146.702 48.008L145.55 47.752C144.878 47.6027 144.361 47.3253 143.998 46.92C143.636 46.5147 143.454 46.0347 143.454 45.48C143.454 44.7973 143.732 44.2107 144.286 43.72C144.841 43.2187 145.518 42.968 146.318 42.968C146.83 42.968 147.284 43.0427 147.678 43.192C148.073 43.3413 148.377 43.5387 148.59 43.784C148.814 44.0187 148.985 44.248 149.102 44.472C149.22 44.696 149.294 44.92 149.326 45.144L147.758 45.592C147.716 45.2933 147.577 45.0267 147.342 44.792C147.118 44.5467 146.777 44.424 146.318 44.424C145.998 44.424 145.732 44.5147 145.518 44.696C145.305 44.8667 145.198 45.0747 145.198 45.32C145.198 45.7573 145.46 46.0293 145.982 46.136L147.166 46.376C147.892 46.536 148.446 46.824 148.83 47.24C149.214 47.656 149.406 48.1573 149.406 48.744C149.406 49.3947 149.145 49.976 148.622 50.488C148.11 50.9893 147.39 51.24 146.462 51.24C145.929 51.24 145.449 51.16 145.022 51C144.606 50.84 144.276 50.6373 144.03 50.392C143.796 50.136 143.609 49.8853 143.47 49.64C143.342 49.384 143.268 49.1333 143.246 48.888ZM164.896 51H162.896L157.296 42.408V51H155.376V39.656H157.824L162.976 47.704V39.656H164.896V51ZM169.291 48.92C169.717 49.3573 170.235 49.576 170.843 49.576C171.451 49.576 171.963 49.3573 172.379 48.92C172.805 48.4827 173.019 47.8747 173.019 47.096C173.019 46.328 172.805 45.7307 172.379 45.304C171.963 44.8667 171.451 44.648 170.843 44.648C170.235 44.648 169.717 44.8667 169.291 45.304C168.875 45.7307 168.667 46.328 168.667 47.096C168.667 47.864 168.875 48.472 169.291 48.92ZM170.843 42.968C172.016 42.968 172.981 43.3573 173.739 44.136C174.507 44.9147 174.891 45.9013 174.891 47.096C174.891 48.2907 174.507 49.2827 173.739 50.072C172.981 50.8507 172.016 51.24 170.843 51.24C169.68 51.24 168.715 50.8507 167.947 50.072C167.189 49.2827 166.811 48.2907 166.811 47.096C166.811 45.9013 167.189 44.9147 167.947 44.136C168.715 43.3573 169.68 42.968 170.843 42.968ZM180.913 43.208H182.833L184.673 48.6L186.225 43.208H188.113L185.617 51H183.761L181.825 45.4L179.937 51H178.033L175.505 43.208H177.489L179.073 48.6L180.913 43.208Z" fill="#FE6C9D"/>
<defs>
<filter id="filter0_d_16_209" x="0" y="0" width="244" height="110" filterUnits="userSpaceOnUse" color-interpolation-filters="sRGB">
<feFlood flood-opacity="0" result="BackgroundImageFix"/>
<feColorMatrix in="SourceAlpha" type="matrix" values="0 0 0 0 0 0 0 0 0 0 0 0 0 0 0 0 0 0 127 0" result="hardAlpha"/>
<feOffset dy="10"/>
<feGaussianBlur stdDeviation="12.5"/>
<feColorMatrix type="matrix" values="0 0 0 0 0.38809 0 0 0 0 0.175243 0 0 0 0 0.858333 0 0 0 0.4 0"/>
<feBlend mode="normal" in2="BackgroundImageFix" result="effect1_dropShadow_16_209"/>
<feBlend mode="normal" in="SourceGraphic" in2="effect1_dropShadow_16_209" result="shape"/>
</filter>
<clipPath id="clip0_16_209">
<rect width="24" height="24" fill="white" transform="translate(55 33)"/>
</clipPath>
</defs>
</svg>
