<svg width="200" height="120" viewBox="0 0 273 120" fill="none" xmlns="http://www.w3.org/2000/svg">
<g filter="url(#filter0_d_13_705)">
<rect x="30" y="20" width="213" height="60" rx="10" fill="white"/>
</g>
<path d="M64.0023 37.4063C63.4091 37.0272 62.6932 36.9121 62.0182 37.0678L73.8273 48.7949L77.6523 44.9965L64.0023 37.4063Z" fill="#9166F0"/>
<path d="M60.5523 38.0225C60.225 38.4558 60.0341 38.9907 60.0341 39.5527V60.4407C60.0341 61.0027 60.225 61.5376 60.5523 61.9709L72.6136 50.0001L60.5523 38.0225Z" fill="#9166F0"/>
<path d="M82.65 47.7724L79.2136 45.863L75.0409 50L79.2136 54.1438L82.6568 52.2344C83.4818 51.774 83.9727 50.9412 83.9727 50.0068C83.9659 49.0589 83.475 48.2261 82.65 47.7724Z" fill="#9166F0"/>
<path d="M73.8273 51.2053L62.0182 62.9324C62.2091 62.9798 62.4068 63.0001 62.6046 63.0001C63.0886 63.0001 63.5796 62.8647 64.0023 62.5871L77.6523 55.0038L73.8273 51.2053Z" fill="#9166F0"/>
<path d="M131.948 44.5951C128.654 44.5951 125.976 47.0991 125.976 50.5554C125.976 53.994 128.654 56.5156 131.948 56.5156C135.243 56.5156 137.92 53.994 137.92 50.5554C137.92 47.1167 135.243 44.5951 131.948 44.5951ZM131.948 54.1703C130.151 54.1703 128.583 52.6714 128.583 50.5554C128.583 48.404 130.133 46.9404 131.948 46.9404C133.763 46.9404 135.313 48.404 135.313 50.5554C135.295 52.6714 133.745 54.1703 131.948 54.1703ZM147.945 45.9353H147.857C147.275 45.2299 146.148 44.5951 144.721 44.5951C141.743 44.5951 139.013 47.2225 139.013 50.573C139.013 53.9058 141.743 56.5156 144.721 56.5156C146.148 56.5156 147.275 55.8808 147.857 55.1578H147.945V56.0219C147.945 58.2966 146.729 59.5134 144.774 59.5134C143.17 59.5134 142.184 58.3672 141.779 57.3973L139.506 58.3495C140.158 59.9366 141.902 61.8763 144.791 61.8763C147.857 61.8763 150.446 60.0777 150.446 55.6692V44.9654H147.962L147.945 45.9353ZM144.95 54.1703C143.153 54.1703 141.638 52.6538 141.638 50.573C141.638 48.4745 143.153 46.9404 144.95 46.9404C146.729 46.9404 148.121 48.4745 148.121 50.573C148.121 52.6714 146.729 54.1703 144.95 54.1703ZM118.911 44.5951C115.617 44.5951 112.939 47.0991 112.939 50.5554C112.939 53.994 115.617 56.5156 118.911 56.5156C122.206 56.5156 124.883 53.994 124.883 50.5554C124.883 47.1167 122.206 44.5951 118.911 44.5951ZM118.911 54.1703C117.114 54.1703 115.546 52.6714 115.546 50.5554C115.546 48.404 117.097 46.9404 118.911 46.9404C120.708 46.9404 122.276 48.404 122.276 50.5554C122.258 52.6714 120.708 54.1703 118.911 54.1703ZM103.39 46.4114V48.933H109.433C109.257 50.3614 108.781 51.4018 108.059 52.1248C107.178 53.0065 105.804 53.9763 103.39 53.9763C99.6728 53.9763 96.7659 50.9786 96.7659 47.2578C96.7659 43.537 99.6728 40.5393 103.39 40.5393C105.399 40.5393 106.861 41.3328 107.953 42.3379L109.732 40.5569C108.217 39.1109 106.209 38 103.39 38C98.2987 38 94 42.1616 94 47.2578C94 52.354 98.2811 56.5156 103.39 56.5156C106.138 56.5156 108.217 55.6163 109.838 53.9234C111.512 52.2482 112.023 49.9029 112.023 48.0161C112.023 47.4341 111.97 46.8875 111.882 46.429L103.39 46.4114ZM166.813 48.404C166.32 47.0638 164.805 44.6127 161.722 44.6127C158.656 44.6127 156.102 47.0286 156.102 50.573C156.102 53.9058 158.621 56.5332 162.004 56.5332C164.734 56.5332 166.32 54.858 166.972 53.8882L164.946 52.5304C164.276 53.5179 163.342 54.1703 162.021 54.1703C160.7 54.1703 159.749 53.5531 159.132 52.3716L167.095 49.0741L166.813 48.404ZM158.709 50.379C158.639 48.069 160.488 46.9051 161.827 46.9051C162.867 46.9051 163.748 47.4165 164.03 48.1748L158.709 50.379ZM152.226 56.1629H154.833V38.6525H152.226V56.1629ZM179.075 38.6525H172.821V56.1629H175.428V49.5326H179.075C181.964 49.5326 184.818 47.4341 184.818 44.0837C184.818 40.7509 181.964 38.6525 179.075 38.6525ZM179.145 47.0638H175.428V41.0683H179.145C181.101 41.0683 182.211 42.6906 182.211 44.0661C182.211 45.4415 181.101 47.0638 179.145 47.0638ZM186.263 56.1629H188.87V38.6525H186.263V56.1629ZM195.283 44.5598C193.398 44.5598 191.425 45.3886 190.614 47.2402L192.94 48.21C193.433 47.2402 194.349 46.9228 195.318 46.9228C196.675 46.9228 198.049 47.7339 198.067 49.1799V49.3562C197.591 49.0917 196.587 48.6862 195.336 48.6862C192.834 48.6862 190.297 50.0616 190.297 52.6362C190.297 54.9815 192.341 56.4803 194.649 56.4803C196.411 56.4803 197.379 55.6868 197.978 54.7699H198.067V56.1277H200.586V49.4091C200.603 46.3056 198.278 44.5598 195.283 44.5598ZM194.966 54.1703C194.103 54.1703 192.922 53.7471 192.922 52.6891C192.922 51.3312 194.402 50.8199 195.688 50.8199C196.833 50.8199 197.379 51.0667 198.067 51.4018C197.873 53.0241 196.481 54.1703 194.966 54.1703ZM209.782 44.9478L206.787 52.548H206.699L203.598 44.9478H200.78L205.431 55.5634L202.77 61.4884H205.501L212.689 44.9654H209.782V44.9478Z" fill="#9166F0"/>
<defs>
<filter id="filter0_d_13_705" x="0" y="0" width="273" height="120" filterUnits="userSpaceOnUse" color-interpolation-filters="sRGB">
<feFlood flood-opacity="0" result="BackgroundImageFix"/>
<feColorMatrix in="SourceAlpha" type="matrix" values="0 0 0 0 0 0 0 0 0 0 0 0 0 0 0 0 0 0 127 0" result="hardAlpha"/>
<feOffset dy="10"/>
<feGaussianBlur stdDeviation="15"/>
<feColorMatrix type="matrix" values="0 0 0 0 0.824444 0 0 0 0 0.840933 0 0 0 0 0.883333 0 0 0 0.45 0"/>
<feBlend mode="normal" in2="BackgroundImageFix" result="effect1_dropShadow_13_705"/>
<feBlend mode="normal" in="SourceGraphic" in2="effect1_dropShadow_13_705" result="shape"/>
</filter>
</defs>
</svg>
