<svg width="230" height="200" viewBox="0 0 330 300" fill="none" xmlns="http://www.w3.org/2000/svg">
<rect width="330" height="300" fill="#2CAD5A" fill-opacity="0.1"/>
<path d="M62.1295 203.188C60.8975 204.327 60.2815 205.951 60.2815 208.06C60.2815 210.169 60.8975 211.803 62.1295 212.96C63.3615 214.099 64.8082 214.668 66.4695 214.668C68.1495 214.668 69.6055 214.099 70.8375 212.96C72.0695 211.803 72.6855 210.169 72.6855 208.06C72.6855 205.951 72.0695 204.327 70.8375 203.188C69.6055 202.031 68.1495 201.452 66.4695 201.452C64.8082 201.452 63.3615 202.031 62.1295 203.188ZM56.2775 208.088C56.2775 204.989 57.2762 202.488 59.2735 200.584C61.2709 198.68 63.6695 197.728 66.4695 197.728C69.2882 197.728 71.6962 198.68 73.6935 200.584C75.6909 202.488 76.6895 204.989 76.6895 208.088C76.6895 211.168 75.6909 213.66 73.6935 215.564C71.6962 217.468 69.2882 218.42 66.4695 218.42C63.6695 218.42 61.2709 217.468 59.2735 215.564C57.2762 213.66 56.2775 211.168 56.2775 208.088ZM83.4835 210.076V218H79.7595V204.224H83.3715V205.932C83.7635 205.26 84.3235 204.747 85.0515 204.392C85.7795 204.037 86.5448 203.86 87.3475 203.86C88.9715 203.86 90.2035 204.373 91.0435 205.4C91.9022 206.408 92.3315 207.715 92.3315 209.32V218H88.6075V209.964C88.6075 209.143 88.3928 208.48 87.9635 207.976C87.5528 207.472 86.9182 207.22 86.0595 207.22C85.2755 207.22 84.6502 207.491 84.1835 208.032C83.7168 208.573 83.4835 209.255 83.4835 210.076ZM99.835 218H96.111V197.728H99.835V218ZM107.546 218H103.822V204.224H107.546V218ZM103.374 199.716C103.374 199.081 103.598 198.54 104.046 198.092C104.494 197.625 105.035 197.392 105.67 197.392C106.305 197.392 106.846 197.616 107.294 198.064C107.742 198.512 107.966 199.063 107.966 199.716C107.966 200.332 107.742 200.864 107.294 201.312C106.846 201.76 106.305 201.984 105.67 201.984C105.035 201.984 104.494 201.76 104.046 201.312C103.598 200.864 103.374 200.332 103.374 199.716ZM115.257 210.076V218H111.533V204.224H115.145V205.932C115.537 205.26 116.097 204.747 116.825 204.392C117.553 204.037 118.318 203.86 119.121 203.86C120.745 203.86 121.977 204.373 122.817 205.4C123.676 206.408 124.105 207.715 124.105 209.32V218H120.381V209.964C120.381 209.143 120.166 208.48 119.737 207.976C119.326 207.472 118.692 207.22 117.833 207.22C117.049 207.22 116.424 207.491 115.957 208.032C115.49 208.573 115.257 209.255 115.257 210.076ZM130.6 209.544H136.76C136.723 208.779 136.443 208.135 135.92 207.612C135.416 207.089 134.67 206.828 133.68 206.828C132.784 206.828 132.056 207.108 131.496 207.668C130.936 208.228 130.638 208.853 130.6 209.544ZM137.124 213.128L140.232 214.052C139.859 215.321 139.122 216.367 138.02 217.188C136.938 218.009 135.584 218.42 133.96 218.42C131.982 218.42 130.302 217.757 128.92 216.432C127.539 215.088 126.848 213.296 126.848 211.056C126.848 208.928 127.52 207.192 128.864 205.848C130.208 204.485 131.795 203.804 133.624 203.804C135.752 203.804 137.414 204.439 138.608 205.708C139.822 206.977 140.428 208.723 140.428 210.944C140.428 211.093 140.419 211.261 140.4 211.448C140.4 211.635 140.4 211.784 140.4 211.896L140.372 212.092H130.516C130.554 212.988 130.908 213.735 131.58 214.332C132.252 214.929 133.055 215.228 133.988 215.228C135.575 215.228 136.62 214.528 137.124 213.128ZM163.915 202.88L160.443 203.944C160.312 203.235 159.958 202.591 159.379 202.012C158.8 201.433 157.951 201.144 156.831 201.144C155.916 201.144 155.17 201.396 154.591 201.9C154.012 202.385 153.723 202.973 153.723 203.664C153.723 204.877 154.442 205.624 155.879 205.904L158.651 206.436C160.406 206.772 161.768 207.472 162.739 208.536C163.71 209.6 164.195 210.851 164.195 212.288C164.195 213.931 163.542 215.368 162.235 216.6C160.947 217.813 159.211 218.42 157.027 218.42C155.776 218.42 154.647 218.233 153.639 217.86C152.631 217.487 151.819 216.992 151.203 216.376C150.587 215.741 150.102 215.079 149.747 214.388C149.411 213.679 149.206 212.951 149.131 212.204L152.715 211.252C152.808 212.316 153.219 213.203 153.947 213.912C154.694 214.621 155.73 214.976 157.055 214.976C158.063 214.976 158.847 214.752 159.407 214.304C159.986 213.856 160.275 213.268 160.275 212.54C160.275 211.961 160.06 211.467 159.631 211.056C159.22 210.627 158.632 210.337 157.867 210.188L155.095 209.628C153.49 209.292 152.22 208.629 151.287 207.64C150.354 206.651 149.887 205.419 149.887 203.944C149.887 202.189 150.559 200.715 151.903 199.52C153.266 198.325 154.899 197.728 156.803 197.728C157.942 197.728 158.959 197.887 159.855 198.204C160.751 198.521 161.47 198.951 162.011 199.492C162.552 200.015 162.972 200.556 163.271 201.116C163.57 201.676 163.784 202.264 163.915 202.88ZM170.765 209.908V218H167.041V197.728H170.765V205.372C171.605 204.364 172.846 203.86 174.489 203.86C176.169 203.86 177.438 204.373 178.297 205.4C179.174 206.408 179.613 207.715 179.613 209.32V218H175.889V209.964C175.889 209.143 175.674 208.48 175.245 207.976C174.834 207.472 174.199 207.22 173.341 207.22C172.575 207.22 171.959 207.472 171.493 207.976C171.045 208.48 170.802 209.124 170.765 209.908ZM187.088 213.996C187.779 214.687 188.61 215.032 189.58 215.032C190.551 215.032 191.372 214.687 192.044 213.996C192.735 213.305 193.08 212.344 193.08 211.112C193.08 209.88 192.735 208.919 192.044 208.228C191.372 207.537 190.551 207.192 189.58 207.192C188.61 207.192 187.779 207.537 187.088 208.228C186.416 208.919 186.08 209.88 186.08 211.112C186.08 212.344 186.416 213.305 187.088 213.996ZM184.4 205.876C185.782 204.495 187.508 203.804 189.58 203.804C191.652 203.804 193.37 204.495 194.732 205.876C196.114 207.257 196.804 209.003 196.804 211.112C196.804 213.221 196.114 214.967 194.732 216.348C193.37 217.729 191.652 218.42 189.58 218.42C187.508 218.42 185.782 217.729 184.4 216.348C183.038 214.967 182.356 213.221 182.356 211.112C182.356 209.003 183.038 207.257 184.4 205.876ZM203.468 223.32H199.744V204.224H203.356V205.904C203.692 205.344 204.233 204.877 204.98 204.504C205.727 204.112 206.595 203.916 207.584 203.916C209.544 203.916 211.093 204.588 212.232 205.932C213.371 207.257 213.94 208.975 213.94 211.084C213.94 213.193 213.333 214.929 212.12 216.292C210.925 217.655 209.367 218.336 207.444 218.336C205.615 218.336 204.289 217.776 203.468 216.656V223.32ZM209.292 213.968C209.945 213.259 210.272 212.307 210.272 211.112C210.272 209.917 209.945 208.975 209.292 208.284C208.657 207.593 207.845 207.248 206.856 207.248C205.867 207.248 205.045 207.603 204.392 208.312C203.739 209.003 203.412 209.936 203.412 211.112C203.412 212.288 203.739 213.231 204.392 213.94C205.045 214.649 205.867 215.004 206.856 215.004C207.845 215.004 208.657 214.659 209.292 213.968ZM220.612 223.32H216.888V204.224H220.5V205.904C220.836 205.344 221.378 204.877 222.124 204.504C222.871 204.112 223.739 203.916 224.728 203.916C226.688 203.916 228.238 204.588 229.376 205.932C230.515 207.257 231.084 208.975 231.084 211.084C231.084 213.193 230.478 214.929 229.264 216.292C228.07 217.655 226.511 218.336 224.588 218.336C222.759 218.336 221.434 217.776 220.612 216.656V223.32ZM226.436 213.968C227.09 213.259 227.416 212.307 227.416 211.112C227.416 209.917 227.09 208.975 226.436 208.284C225.802 207.593 224.99 207.248 224 207.248C223.011 207.248 222.19 207.603 221.536 208.312C220.883 209.003 220.556 209.936 220.556 211.112C220.556 212.288 220.883 213.231 221.536 213.94C222.19 214.649 223.011 215.004 224 215.004C224.99 215.004 225.802 214.659 226.436 213.968ZM237.757 218H234.033V204.224H237.757V218ZM233.585 199.716C233.585 199.081 233.809 198.54 234.257 198.092C234.705 197.625 235.246 197.392 235.881 197.392C236.516 197.392 237.057 197.616 237.505 198.064C237.953 198.512 238.177 199.063 238.177 199.716C238.177 200.332 237.953 200.864 237.505 201.312C237.057 201.76 236.516 201.984 235.881 201.984C235.246 201.984 234.705 201.76 234.257 201.312C233.809 200.864 233.585 200.332 233.585 199.716ZM245.468 210.076V218H241.744V204.224H245.356V205.932C245.748 205.26 246.308 204.747 247.036 204.392C247.764 204.037 248.529 203.86 249.332 203.86C250.956 203.86 252.188 204.373 253.028 205.4C253.887 206.408 254.316 207.715 254.316 209.32V218H250.592V209.964C250.592 209.143 250.377 208.48 249.948 207.976C249.537 207.472 248.903 207.22 248.044 207.22C247.26 207.22 246.635 207.491 246.168 208.032C245.701 208.573 245.468 209.255 245.468 210.076ZM257.115 218.756L260.475 217.86C260.606 218.625 260.961 219.251 261.539 219.736C262.118 220.221 262.837 220.464 263.695 220.464C266.141 220.464 267.363 219.185 267.363 216.628V215.62C267.046 216.124 266.561 216.544 265.907 216.88C265.254 217.216 264.461 217.384 263.527 217.384C261.698 217.384 260.167 216.749 258.935 215.48C257.722 214.211 257.115 212.615 257.115 210.692C257.115 208.825 257.722 207.239 258.935 205.932C260.149 204.625 261.679 203.972 263.527 203.972C264.535 203.972 265.375 204.159 266.047 204.532C266.719 204.887 267.186 205.325 267.447 205.848V204.224H271.031V216.516C271.031 218.588 270.434 220.305 269.239 221.668C268.045 223.049 266.234 223.74 263.807 223.74C261.997 223.74 260.475 223.255 259.243 222.284C258.03 221.313 257.321 220.137 257.115 218.756ZM264.171 214.192C265.123 214.192 265.898 213.875 266.495 213.24C267.111 212.605 267.419 211.756 267.419 210.692C267.419 209.647 267.102 208.807 266.467 208.172C265.851 207.537 265.086 207.22 264.171 207.22C263.219 207.22 262.426 207.537 261.791 208.172C261.175 208.807 260.867 209.647 260.867 210.692C260.867 211.756 261.175 212.605 261.791 213.24C262.407 213.875 263.201 214.192 264.171 214.192Z" fill="#161828"/>
<path d="M199.781 95.883L193.704 81.6444C191.982 77.608 188.033 75 183.644 75H146.356C141.967 75 138.019 77.608 136.296 81.6444L130.219 95.883C130.075 96.2223 130 96.5873 130 96.9562V100.511C130 104.249 132.252 107.469 135.469 108.891V134.062C135.469 140.093 140.375 145 146.406 145H183.594C189.625 145 194.531 140.093 194.531 134.062C194.531 132.552 193.307 131.328 191.797 131.328C190.287 131.328 189.062 132.552 189.062 134.062C189.062 137.078 186.609 139.531 183.594 139.531H146.406C143.391 139.531 140.938 137.078 140.938 134.062V109.497C142.729 109.143 144.333 108.266 145.586 107.031C145.845 107.286 146.119 107.525 146.406 107.748V125.449C146.406 126.959 147.63 128.184 149.141 128.184H180.859C182.37 128.184 183.594 126.959 183.594 125.449V107.748C183.881 107.525 184.155 107.286 184.414 107.031C185.667 108.266 187.271 109.143 189.062 109.497V120.391C189.062 121.901 190.287 123.125 191.797 123.125C193.307 123.125 194.531 121.901 194.531 120.391V108.892C197.748 107.469 200 104.249 200 100.511V96.9563C200 96.5873 199.925 96.2223 199.781 95.883ZM142.852 100.511C142.852 102.546 141.196 104.202 139.16 104.202C137.125 104.202 135.469 102.546 135.469 100.511V99.6094H142.852V100.511ZM148.32 100.511V99.6094H155.703V100.511C155.703 102.546 154.047 104.202 152.012 104.202C149.976 104.202 148.32 102.546 148.32 100.511ZM178.125 122.715H151.875V109.668C151.921 109.668 151.966 109.671 152.012 109.671C154.533 109.671 156.821 108.646 158.479 106.992C160.158 108.647 162.461 109.671 165 109.671C167.539 109.671 169.842 108.647 171.521 106.992C173.18 108.646 175.467 109.671 177.988 109.671C178.034 109.671 178.079 109.668 178.125 109.668V122.715ZM161.172 100.374V99.6094H168.828V100.374C168.828 102.485 167.111 104.202 165 104.202C162.889 104.202 161.172 102.485 161.172 100.374ZM181.68 100.511C181.68 102.546 180.024 104.202 177.988 104.202C175.953 104.202 174.297 102.546 174.297 100.511V99.6094H181.68V100.511ZM136.909 94.1406L141.326 83.7909C142.187 81.7728 144.161 80.4688 146.356 80.4688H183.644C185.839 80.4688 187.813 81.7728 188.674 83.7909L193.091 94.1406H136.909ZM194.531 100.511C194.531 102.546 192.875 104.202 190.84 104.202C188.804 104.202 187.148 102.546 187.148 100.511V99.6094H194.531V100.511Z" fill="#30BF67"/>
</svg>
