<svg width="230" height="200" viewBox="0 0 330 300" fill="none" xmlns="http://www.w3.org/2000/svg">
<rect width="330" height="300" fill="#FF9A3E" fill-opacity="0.1"/>
<path d="M88.4432 207.192H91.4952C92.4472 207.192 93.2032 206.94 93.7632 206.436C94.3232 205.913 94.6032 205.223 94.6032 204.364C94.6032 203.487 94.3232 202.796 93.7632 202.292C93.2219 201.769 92.4659 201.508 91.4952 201.508H88.4432V207.192ZM91.9712 210.524H88.4152V218H84.5512V198.148H91.9712C93.9125 198.148 95.4805 198.727 96.6752 199.884C97.8885 201.041 98.4952 202.525 98.4952 204.336C98.4952 206.147 97.8885 207.631 96.6752 208.788C95.4805 209.945 93.9125 210.524 91.9712 210.524ZM99.9195 214.248C99.9195 213.072 100.302 212.129 101.067 211.42C101.833 210.711 102.822 210.263 104.035 210.076L107.423 209.572C108.114 209.479 108.459 209.152 108.459 208.592C108.459 208.069 108.254 207.64 107.843 207.304C107.451 206.968 106.882 206.8 106.135 206.8C105.351 206.8 104.726 207.015 104.259 207.444C103.811 207.873 103.559 208.405 103.503 209.04L100.199 208.34C100.33 207.145 100.918 206.091 101.963 205.176C103.009 204.261 104.39 203.804 106.107 203.804C108.161 203.804 109.673 204.299 110.643 205.288C111.614 206.259 112.099 207.509 112.099 209.04V215.816C112.099 216.637 112.155 217.365 112.267 218H108.851C108.758 217.589 108.711 217.039 108.711 216.348C107.834 217.711 106.481 218.392 104.651 218.392C103.233 218.392 102.085 217.981 101.207 217.16C100.349 216.339 99.9195 215.368 99.9195 214.248ZM105.435 215.62C106.313 215.62 107.031 215.377 107.591 214.892C108.17 214.388 108.459 213.567 108.459 212.428V211.812L105.351 212.288C104.213 212.456 103.643 213.035 103.643 214.024C103.643 214.472 103.802 214.855 104.119 215.172C104.437 215.471 104.875 215.62 105.435 215.62ZM120.258 223.432H116.31L119.558 216.264L113.706 204.224H117.878L121.546 212.288L124.934 204.224H128.91L120.258 223.432ZM151.832 218L150.18 213.464H142.116L140.464 218H136.376L143.992 198.148H148.472L156.032 218H151.832ZM146.148 202.432L143.404 209.936H148.892L146.148 202.432ZM169.381 218H165.489V198.148H178.033V201.816H169.353V206.716H177.081V210.272H169.381V218ZM188.374 204.168V207.92C188.001 207.845 187.628 207.808 187.254 207.808C186.19 207.808 185.332 208.116 184.678 208.732C184.025 209.329 183.698 210.319 183.698 211.7V218H179.974V204.224H183.586V206.268C184.258 204.831 185.565 204.112 187.506 204.112C187.712 204.112 188.001 204.131 188.374 204.168ZM194.718 218H190.994V204.224H194.718V218ZM190.546 199.716C190.546 199.081 190.77 198.54 191.218 198.092C191.666 197.625 192.207 197.392 192.842 197.392C193.477 197.392 194.018 197.616 194.466 198.064C194.914 198.512 195.138 199.063 195.138 199.716C195.138 200.332 194.914 200.864 194.466 201.312C194.018 201.76 193.477 201.984 192.842 201.984C192.207 201.984 191.666 201.76 191.218 201.312C190.77 200.864 190.546 200.332 190.546 199.716ZM201.421 209.544H207.581C207.543 208.779 207.263 208.135 206.741 207.612C206.237 207.089 205.49 206.828 204.501 206.828C203.605 206.828 202.877 207.108 202.317 207.668C201.757 208.228 201.458 208.853 201.421 209.544ZM207.945 213.128L211.053 214.052C210.679 215.321 209.942 216.367 208.841 217.188C207.758 218.009 206.405 218.42 204.781 218.42C202.802 218.42 201.122 217.757 199.741 216.432C198.359 215.088 197.669 213.296 197.669 211.056C197.669 208.928 198.341 207.192 199.685 205.848C201.029 204.485 202.615 203.804 204.445 203.804C206.573 203.804 208.234 204.439 209.429 205.708C210.642 206.977 211.249 208.723 211.249 210.944C211.249 211.093 211.239 211.261 211.221 211.448C211.221 211.635 211.221 211.784 211.221 211.896L211.193 212.092H201.337C201.374 212.988 201.729 213.735 202.401 214.332C203.073 214.929 203.875 215.228 204.809 215.228C206.395 215.228 207.441 214.528 207.945 213.128ZM217.905 210.076V218H214.181V204.224H217.793V205.932C218.185 205.26 218.745 204.747 219.473 204.392C220.201 204.037 220.967 203.86 221.769 203.86C223.393 203.86 224.625 204.373 225.465 205.4C226.324 206.408 226.753 207.715 226.753 209.32V218H223.029V209.964C223.029 209.143 222.815 208.48 222.385 207.976C221.975 207.472 221.34 207.22 220.481 207.22C219.697 207.22 219.072 207.491 218.605 208.032C218.139 208.573 217.905 209.255 217.905 210.076ZM243.665 197.728V215.508C243.665 216.423 243.702 217.253 243.777 218H240.221C240.128 217.533 240.081 217.001 240.081 216.404C239.764 216.983 239.26 217.449 238.569 217.804C237.897 218.159 237.113 218.336 236.217 218.336C234.257 218.336 232.642 217.655 231.373 216.292C230.122 214.911 229.497 213.175 229.497 211.084C229.497 209.049 230.113 207.341 231.345 205.96C232.596 204.579 234.182 203.888 236.105 203.888C238.084 203.888 239.381 204.457 239.997 205.596V197.728H243.665ZM233.249 211.084C233.249 212.297 233.566 213.259 234.201 213.968C234.836 214.659 235.657 215.004 236.665 215.004C237.654 215.004 238.466 214.649 239.101 213.94C239.736 213.231 240.053 212.269 240.053 211.056C240.053 209.861 239.736 208.928 239.101 208.256C238.466 207.565 237.654 207.22 236.665 207.22C235.676 207.22 234.854 207.565 234.201 208.256C233.566 208.947 233.249 209.889 233.249 211.084Z" fill="#161828"/>
<path d="M185.371 110.137C180.848 110.137 177.168 113.817 177.168 118.34C177.168 122.864 180.848 126.544 185.371 126.544H196.992C197.038 126.544 197.084 126.539 197.129 126.537C197.175 126.539 197.22 126.543 197.265 126.543C198.776 126.543 200 125.319 200 123.809V102.344C200 98.704 198.211 95.4754 195.467 93.4863L186.165 78.2258C185.785 77.6034 185.173 77.1583 184.464 76.9893C183.755 76.82 183.008 76.941 182.389 77.3252L175.529 81.5793L172.435 76.3438C172.063 75.7144 171.455 75.2602 170.745 75.0825C170.036 74.9047 169.285 75.0186 168.661 75.3982L142.32 91.4068H138.203C136.718 91.4068 135.506 90.2171 135.47 88.7408C135.506 87.2645 136.718 86.0748 138.203 86.0748H143.262C144.772 86.0748 145.996 84.8506 145.996 83.3404C145.996 81.8302 144.772 80.606 143.262 80.606H138.203C134.334 80.606 131.083 83.2986 130.223 86.9081C130.08 87.2398 130 87.6048 130 87.9888V88.6724V88.8092V134.063C130 140.094 134.907 145 140.937 145H189.062C193.778 145 197.948 141.997 199.439 137.526C199.917 136.093 199.143 134.545 197.711 134.067C196.279 133.589 194.73 134.363 194.252 135.795C193.506 138.03 191.421 139.532 189.062 139.532H140.937C137.922 139.532 135.469 137.078 135.469 134.063V96.4065C136.324 96.71 137.245 96.8755 138.203 96.8755H189.062C192.078 96.8755 194.531 99.3288 194.531 102.344V110.137H185.371ZM194.531 121.075H185.371C183.863 121.075 182.637 119.848 182.637 118.34C182.637 116.833 183.863 115.606 185.371 115.606H194.531V121.075ZM152.849 91.4069L169.135 81.5095L172.047 86.437C172.103 86.5716 172.167 86.7044 172.246 86.8323C172.306 86.9282 172.372 87.0175 172.441 87.1033L174.984 91.4069H152.849ZM181.336 91.4068L178.311 86.2886L182.929 83.425L187.795 91.4068H181.336Z" fill="#FF9C43"/>
</svg>
