<svg width="60" height="55" viewBox="0 0 119 55" fill="none" xmlns="http://www.w3.org/2000/svg">
<path d="M23.2574 3.40341C22.2237 2.33439 20.9962 1.50536 19.5319 0.894486C18.0891 0.305434 16.4524 0 14.6866 0C12.5116 0 10.5089 0.370885 8.72151 1.09084C6.93414 1.81079 5.38365 2.83618 4.09157 4.167C2.7995 5.51964 1.78737 7.11226 1.07673 8.9885C0.366088 10.8647 0 12.9591 0 15.2717C0 16.7116 0.150742 17.9988 0.452226 19.0896C0.753711 20.2023 1.09826 21.1404 1.48589 21.904C1.87351 22.6894 2.26113 23.3003 2.67029 23.7802C3.05791 24.2384 3.3594 24.5657 3.55321 24.7402C3.89776 25.0238 4.24231 25.0456 4.58687 24.8493C4.90989 24.6529 5.21137 24.3475 5.46979 23.9548C5.7282 23.5621 5.92201 23.1476 6.07276 22.6894C6.2235 22.2313 6.30964 21.904 6.30964 21.6858C6.30964 21.4459 6.24503 21.2495 6.13736 21.0968C6.02969 20.9441 5.83588 20.9223 5.55593 21.0095C5.53439 20.9877 5.40518 20.8568 5.23291 20.6168C5.03909 20.3987 4.84528 20.0496 4.6084 19.5696C4.39306 19.0896 4.17771 18.4788 4.00543 17.737C3.83316 16.9952 3.72548 16.0571 3.72548 14.9663C3.72548 13.4609 3.94083 12.021 4.34999 10.6466C4.75915 9.29393 5.40518 8.09401 6.2881 7.06862C7.17102 6.04324 8.31235 5.2142 9.7121 4.60333C11.1119 3.99246 12.7915 3.68703 14.7512 3.68703C16.1725 3.68703 17.4 3.94883 18.4121 4.49425C19.4242 5.01785 20.2425 5.69417 20.8886 6.52321C21.5346 7.35224 21.9868 8.24673 22.2883 9.2503C22.5898 10.2539 22.719 11.2138 22.719 12.1519C22.719 13.5264 22.5467 14.7917 22.2022 15.9262C21.8576 17.0607 21.4054 18.0861 20.8455 18.9806C20.2856 19.8751 19.6611 20.6605 18.9504 21.3368C18.2398 22.0131 17.5076 22.5803 16.7754 23.0385C16.0217 23.4966 15.3111 23.8457 14.6005 24.1075C13.8898 24.3693 13.2653 24.522 12.7054 24.5875V8.44308C12.7054 7.83221 12.447 7.30861 11.9517 6.89409C11.4564 6.45776 10.7888 6.2614 9.99205 6.2614C9.6475 6.2614 9.34601 6.34867 9.0876 6.50139C8.82918 6.65411 8.69998 6.87227 8.69998 7.11226C8.69998 7.28679 8.74305 7.48314 8.80765 7.70131C8.87225 7.91948 8.91532 8.24673 8.91532 8.70488V34.5577C8.91532 34.7541 8.97993 34.9286 9.1522 35.1031C9.30295 35.2777 9.49676 35.4304 9.73364 35.5395C9.97052 35.6704 10.2289 35.7795 10.5089 35.8449C10.7888 35.9322 11.0903 35.9758 11.3703 35.9758C11.7364 35.9758 12.0594 35.8885 12.3178 35.714C12.5977 35.5395 12.7269 35.2559 12.7269 34.8413V28.3181C14.5143 27.9909 16.2586 27.3364 17.9168 26.4201C19.5749 25.482 21.0393 24.3039 22.3098 22.8858C23.5804 21.4677 24.5925 19.8532 25.3678 18.0206C26.1215 16.188 26.5091 14.2027 26.5091 12.0428C26.5091 10.2975 26.2291 8.66125 25.6692 7.19952C25.0663 5.7378 24.2695 4.47243 23.2574 3.40341Z" fill="#161828"/>
<path d="M118.16 16.3845C117.687 15.9482 117.062 15.7518 116.244 15.7518C115.899 15.7518 115.598 15.8391 115.339 15.9918C115.081 16.1445 114.952 16.3409 114.952 16.5809C114.952 16.7554 114.973 16.9517 115.038 17.1699C115.102 17.3881 115.124 17.7153 115.124 18.1735V29.2346C115.124 29.6927 115.081 30.1509 114.995 30.5654C114.909 31.0017 114.779 31.3726 114.586 31.678C114.392 32.0053 114.155 32.2453 113.832 32.4416C113.53 32.6162 113.143 32.7253 112.669 32.7253C112.195 32.7253 111.808 32.638 111.506 32.4634C111.205 32.2889 110.968 32.0489 110.795 31.7435C110.623 31.4381 110.494 31.0672 110.429 30.6308C110.365 30.1945 110.322 29.7145 110.3 29.2128V17.9117C110.3 17.3226 110.063 16.799 109.59 16.3845C109.116 15.9482 108.47 15.7518 107.651 15.7518C107.307 15.7518 107.005 15.8391 106.747 15.9918C106.51 16.1445 106.381 16.3409 106.381 16.5809C106.381 16.7554 106.402 16.9517 106.467 17.1699C106.532 17.3881 106.553 17.7153 106.553 18.1735V29.2346C106.553 29.6927 106.51 30.1509 106.424 30.5654C106.338 31.0017 106.209 31.3726 106.015 31.678C105.821 32.0053 105.584 32.2453 105.261 32.4416C104.96 32.6162 104.572 32.7253 104.098 32.7253C103.581 32.7253 103.151 32.6162 102.828 32.4198C102.505 32.2235 102.268 31.9617 102.096 31.6344C101.923 31.3072 101.816 30.9363 101.772 30.5218C101.708 30.0854 101.686 29.6709 101.686 29.2346V17.9117C101.686 17.3226 101.449 16.799 100.976 16.3845C100.502 15.9482 99.8775 15.7518 99.0591 15.7518C98.7146 15.7518 98.4131 15.8391 98.1547 15.9918C97.8963 16.1445 97.7671 16.3409 97.7671 16.5809C97.7671 16.7554 97.8101 16.9517 97.8747 17.1699C97.9393 17.3881 97.9824 17.7153 97.9824 18.1735V26.3984C97.9824 26.4202 97.9609 26.4638 97.9609 26.4857C97.8747 26.9656 97.7455 27.4238 97.5732 27.8601C97.401 28.2965 97.1641 28.6673 96.8841 28.9946C96.6042 29.3218 96.2596 29.5836 95.8505 29.7582C95.4413 29.9545 94.9891 30.0418 94.4507 30.0418C94.2785 30.0418 94.1062 30.0418 93.9554 30.02C93.8047 30.02 93.6324 29.9763 93.4601 29.9109C93.697 29.0819 93.8693 28.2092 93.977 27.2929C94.0846 26.3984 94.1493 25.4821 94.1493 24.5658C94.1493 23.3659 94.0416 22.275 93.8262 21.2496C93.6109 20.2243 93.3094 19.3516 92.9218 18.6098C92.5342 17.868 92.1035 17.3008 91.5866 16.8645C91.0698 16.45 90.5314 16.2318 89.9715 16.2318C89.3255 16.2318 88.7441 16.3845 88.2488 16.7118C87.7535 17.0172 87.3443 17.4535 87.0213 17.9771C86.6983 18.5007 86.4399 19.1334 86.2891 19.8316C86.1168 20.5297 86.0307 21.2715 86.0307 22.035C86.0307 23.824 86.3322 25.4821 86.9352 27.0311C87.5381 28.5583 88.3995 29.8454 89.5408 30.8272C89.2178 31.3944 88.8302 31.8526 88.378 32.2016C87.9258 32.5507 87.3443 32.7253 86.6552 32.7253C86.1814 32.7253 85.7292 32.5943 85.2985 32.3325C84.8678 32.0707 84.5018 31.678 84.1787 31.1544C83.8557 30.6308 83.5973 29.9763 83.425 29.2128C83.2527 28.4492 83.1451 27.5329 83.1451 26.4857C83.1451 25.2639 83.2312 24.2167 83.382 23.3441C83.5327 22.4714 83.7265 21.7296 83.9634 21.1406C84.2003 20.5297 84.4371 20.0279 84.6956 19.6352C84.954 19.2425 85.1909 18.8716 85.3847 18.5662C85.7077 18.348 85.88 18.0644 85.9446 17.6717C86.0092 17.279 85.9661 16.9081 85.8584 16.5154C85.7292 16.1445 85.5569 15.8173 85.277 15.5337C85.0186 15.25 84.7171 15.1191 84.4156 15.1191C84.1357 15.1191 83.7265 15.3809 83.1881 15.9264C82.6498 16.45 82.0899 17.2354 81.53 18.2389C80.9701 19.2425 80.4748 20.4642 80.0656 21.9041C79.6349 23.3441 79.4411 24.9803 79.4411 26.7911C79.4411 27.751 79.5273 28.6673 79.6995 29.54C79.5488 29.9982 79.3765 30.4563 79.1827 30.8708C78.9243 31.3944 78.6013 31.8526 78.2567 32.2016C77.8906 32.5507 77.4815 32.7253 76.9862 32.7253C76.6632 32.7253 76.4263 32.638 76.254 32.4416C76.0817 32.2453 75.974 32.0271 75.8879 31.7653C75.8018 31.5035 75.7587 31.2635 75.7372 31.0017C75.7156 30.7617 75.7156 30.5654 75.7156 30.4563V20.2243C75.7156 19.657 75.651 19.0898 75.5434 18.4789C75.4142 17.8899 75.2203 17.3444 74.9189 16.8645C74.6174 16.3845 74.2082 15.9918 73.6698 15.6864C73.153 15.3809 72.4854 15.2282 71.6671 15.2282C71.0642 15.2282 70.5043 15.3591 69.9874 15.5991C69.4706 15.8391 68.9968 16.1882 68.5231 16.6463C68.0709 17.0826 67.6402 17.6062 67.2525 18.1953C66.8649 18.7844 66.4988 19.4389 66.1758 20.137V17.9117C66.1758 17.3226 65.9389 16.799 65.4652 16.3845C64.9914 15.9482 64.3669 15.7518 63.5486 15.7518C63.204 15.7518 62.9025 15.8391 62.6441 15.9918C62.3857 16.1445 62.2565 16.3409 62.2565 16.5809C62.2565 16.7554 62.2996 16.9517 62.3642 17.1699C62.4288 17.3881 62.4719 17.7153 62.4719 18.1735V26.8347C62.4073 27.0093 62.3427 27.1838 62.278 27.402C61.7828 29.1037 61.1582 30.5872 60.4261 31.8744C59.6724 33.1398 58.854 34.2742 57.9711 35.2778V17.9117C57.9711 17.3226 57.7342 16.799 57.2605 16.3845C56.7867 15.9482 56.1622 15.7518 55.3439 15.7518C54.9994 15.7518 54.6979 15.8391 54.4395 15.9918C54.2026 16.1445 54.0734 16.3409 54.0734 16.5809C54.0734 16.7554 54.0949 16.9517 54.1595 17.1699C54.2241 17.3881 54.2456 17.7153 54.2456 18.1735V26.1366C54.0949 27.0093 53.9011 27.8383 53.6427 28.6455C53.3843 29.4527 53.0828 30.1509 52.7382 30.7617C52.3937 31.3726 52.006 31.8744 51.5969 32.2453C51.1662 32.6162 50.714 32.7907 50.2187 32.7907C49.508 32.7907 48.9481 32.4416 48.5605 31.7435C48.1729 31.0454 47.9791 30.02 47.9791 28.6673C47.9791 27.6419 48.0006 26.7038 48.0652 25.8748C48.1298 25.0458 48.216 24.2385 48.3452 23.475C48.4744 22.7114 48.6036 21.9478 48.7759 21.1842C48.9481 20.4206 49.1419 19.5916 49.3788 18.6753C49.4219 18.4789 49.5296 18.2389 49.6803 17.9335C49.831 17.6281 49.9172 17.3226 49.9603 17.039C50.0033 16.7554 49.9387 16.4936 49.7664 16.2754C49.5942 16.0573 49.2065 15.9482 48.6036 15.9482C47.9575 15.9482 47.4622 16.0136 47.1608 16.1227C46.8593 16.2318 46.6224 16.3845 46.4717 16.559C46.3209 16.7336 46.2348 16.9299 46.1917 17.1481C46.1486 17.3663 46.084 17.5844 46.0194 17.7808C45.6964 18.9371 45.3949 20.137 45.1365 21.3805C44.9212 22.4496 44.7058 23.6277 44.5335 24.9585C44.3613 26.2893 44.2536 27.5983 44.2536 28.8855C44.2536 28.9728 44.2536 29.06 44.2536 29.1255C44.0813 29.7364 43.866 30.3036 43.6076 30.8272C43.3491 31.3508 43.0261 31.8089 42.6816 32.158C42.3155 32.5071 41.9063 32.6816 41.411 32.6816C41.1311 32.6816 40.8727 32.6162 40.6573 32.4853C40.442 32.3544 40.2697 32.1798 40.1405 31.9617C40.0113 31.7435 39.9251 31.5035 39.8605 31.2417C39.7959 30.9799 39.7744 30.6963 39.7744 30.4345V22.275C39.7744 21.686 39.5375 21.1624 39.0638 20.7479C38.59 20.3115 37.944 20.1152 37.1256 20.1152C36.7811 20.1152 36.4796 20.2024 36.2212 20.3552C35.9843 20.5079 35.8551 20.7042 35.8551 20.966C35.8551 21.0533 35.8551 21.1406 35.8766 21.2278C35.8982 21.3151 35.9197 21.4242 35.9412 21.5333C35.9628 21.6423 35.9843 21.7732 36.0058 21.9478C36.0274 22.1005 36.0489 22.3187 36.0489 22.5586V30.1945C35.769 30.8926 35.4244 31.4817 34.9722 31.9835C34.52 32.4853 33.9816 32.7471 33.314 32.7471C32.4526 32.7471 31.7851 32.398 31.2898 31.6999C30.7945 31.0017 30.5576 29.9982 30.5576 28.6892C30.5576 26.9002 30.7945 25.3512 31.2898 24.064C31.7851 22.7768 32.4096 21.7078 33.1848 20.8569C33.9601 20.0061 34.8214 19.3734 35.769 18.9807C36.7165 18.5662 37.664 18.3698 38.59 18.3698C38.8484 18.3698 39.0853 18.3917 39.3222 18.4135C39.559 18.4353 39.7959 18.4571 40.0113 18.4571C40.2482 18.4571 40.4204 18.3698 40.5066 18.1953C40.5927 18.0208 40.6358 17.7371 40.6358 17.3226C40.6358 16.6681 40.4204 16.1663 40.0113 15.7955C39.6021 15.4246 39.0638 15.25 38.3962 15.25C36.9103 15.25 35.4675 15.5555 34.0677 16.1663C32.668 16.7772 31.4405 17.6499 30.3638 18.8062C29.287 19.9625 28.4257 21.3587 27.7581 22.995C27.112 24.6312 26.789 26.4857 26.789 28.5583C26.789 29.6055 26.9182 30.5872 27.1551 31.4817C27.392 32.398 27.7796 33.1834 28.2534 33.8379C28.7487 34.5142 29.3516 35.0378 30.0838 35.4087C30.816 35.8014 31.6343 35.9978 32.6034 35.9978C33.5294 35.9978 34.3261 35.8014 35.0152 35.4087C35.7044 35.016 36.3073 34.536 36.7811 33.9688C37.1472 34.5797 37.6425 35.0815 38.2885 35.4523C38.9345 35.8232 39.6667 35.9978 40.5281 35.9978C41.5833 35.9978 42.4878 35.7578 43.2845 35.256C44.0382 34.776 44.6843 34.187 45.2226 33.467C45.3519 33.6852 45.4595 33.9034 45.6103 34.0997C46.0625 34.7106 46.6009 35.1905 47.2469 35.5396C47.8929 35.8669 48.6251 36.0414 49.4219 36.0414C50.4771 36.0414 51.3815 35.7141 52.1568 35.0815C52.932 34.4488 53.6211 33.6197 54.2026 32.638V38.9212C53.3843 39.6412 52.6305 40.3611 51.8984 41.0592C51.1662 41.7574 50.5202 42.521 49.9603 43.3064C49.4004 44.1136 48.9697 44.9863 48.6466 45.968C48.3236 46.9279 48.1514 48.0406 48.1514 49.306C48.1514 50.0914 48.259 50.8331 48.4959 51.5313C48.7328 52.2294 49.0558 52.8185 49.465 53.3421C49.8957 53.8657 50.391 54.2584 50.9508 54.5638C51.5323 54.8692 52.1568 55.0001 52.8244 55.0001C53.4489 55.0001 54.0518 54.8692 54.6548 54.6293C55.2578 54.3893 55.7961 53.9966 56.2699 53.4293C56.7437 52.8839 57.1313 52.1421 57.4328 51.2477C57.7343 50.3532 57.8635 49.2623 57.8635 47.9533V39.4012C58.531 38.8121 59.1986 38.1794 59.8662 37.5031C60.5337 36.8268 61.1798 36.0414 61.8043 35.1687C61.9981 34.8851 62.2134 34.5797 62.4073 34.2742C62.4503 34.5142 62.4934 34.7324 62.6011 34.9069C62.7518 35.1905 62.9456 35.4087 63.1825 35.5614C63.4194 35.7141 63.6778 35.8232 63.9362 35.8669C64.2162 35.9323 64.4746 35.9541 64.7115 35.9541C65.056 35.9541 65.336 35.8887 65.5082 35.7578C65.6805 35.6269 65.8313 35.4523 65.9174 35.256C66.0035 35.0596 66.0466 34.8197 66.0681 34.5797C66.0681 34.3397 66.0897 34.0779 66.0897 33.8379V26.6166C66.1758 25.6348 66.4127 24.6531 66.8003 23.6931C67.1664 22.7114 67.5971 21.8387 68.0924 21.0751C68.5877 20.3115 69.083 19.6788 69.5998 19.1989C70.1166 18.7189 70.5473 18.4789 70.8919 18.4789C71.1288 18.4789 71.3226 18.5662 71.4518 18.7189C71.581 18.8716 71.6887 19.068 71.7533 19.3298C71.8179 19.5916 71.8609 19.8752 71.8825 20.2243C71.904 20.5515 71.904 20.9224 71.904 21.3151V31.3508C71.904 31.9835 71.9902 32.5725 72.184 33.1398C72.3562 33.707 72.6362 34.187 73.0023 34.6233C73.3684 35.0596 73.7991 35.3651 74.2944 35.6269C74.7896 35.8669 75.3711 35.9978 76.0171 35.9978C77.0723 35.9978 77.9768 35.7578 78.752 35.256C79.5273 34.7542 80.1948 34.1215 80.7763 33.3798C80.8409 33.2925 80.9055 33.1834 80.9701 33.0961C81.0131 33.1616 81.0562 33.227 81.0993 33.2707C81.6807 34.1215 82.4344 34.776 83.3173 35.2778C84.2003 35.7796 85.277 36.0196 86.5045 36.0196C87.9042 36.0196 89.0886 35.6923 90.0361 35.0378C90.9837 34.3833 91.7589 33.5325 92.3619 32.4634C92.728 32.5944 93.0941 32.6816 93.5032 32.7253C93.8908 32.7689 94.3 32.7907 94.7522 32.7907C95.5705 32.7907 96.3242 32.6598 96.9918 32.398C97.401 32.2453 97.7886 32.0271 98.1332 31.7871C98.1547 31.8962 98.1978 32.0053 98.2193 32.1362C98.37 32.638 98.5638 33.118 98.8223 33.5761C99.0807 34.0343 99.4468 34.4488 99.8774 34.8197C100.33 35.1905 100.868 35.4742 101.514 35.6705C102.16 35.8887 102.935 35.9759 103.84 35.9759C104.292 35.9759 104.766 35.9105 105.218 35.7796C105.67 35.6487 106.101 35.4742 106.51 35.256C106.898 35.0378 107.264 34.7978 107.565 34.5142C107.867 34.2306 108.104 33.9252 108.276 33.5979C108.448 33.9252 108.685 34.2306 108.965 34.5142C109.245 34.7978 109.59 35.0378 109.956 35.256C110.343 35.4742 110.752 35.6487 111.226 35.7796C111.678 35.9105 112.174 35.9759 112.712 35.9759C113.961 35.9759 114.995 35.7578 115.77 35.3433C116.545 34.9287 117.148 34.3833 117.579 33.7288C118.01 33.0743 118.29 32.3544 118.44 31.5471C118.591 30.7399 118.677 29.9763 118.677 29.1909V17.9117C118.871 17.3226 118.634 16.8208 118.16 16.3845ZM54.3964 47.9752C54.3964 48.2151 54.3964 48.5642 54.3964 48.9787C54.3964 49.3932 54.3533 49.8514 54.2887 50.2659C54.2241 50.7022 54.0949 51.0731 53.9011 51.3786C53.7073 51.7058 53.4273 51.8585 53.0397 51.8585C52.6521 51.8585 52.3291 51.5967 52.0922 51.0731C51.8553 50.5495 51.7476 49.895 51.7476 49.1314C51.7476 47.6479 51.9845 46.4043 52.4798 45.379C52.9751 44.3754 53.5996 43.4591 54.3964 42.6519V47.9752ZM90.596 27.6419C90.0361 26.9002 89.5839 26.0275 89.2394 25.0239C88.8948 24.0204 88.7225 22.9732 88.7225 21.8605C88.7225 20.2897 89.0025 19.5261 89.5624 19.5261C89.8208 19.5261 90.0146 19.6788 90.1654 19.9625C90.3161 20.2679 90.4453 20.6606 90.5314 21.1842C90.6176 21.7078 90.6822 22.3187 90.7037 23.0386C90.7253 23.7586 90.7468 24.5222 90.7468 25.373C90.7468 26.093 90.6822 26.8565 90.596 27.6419Z" fill="#161828"/>
</svg>
