<svg width="230" height="200" viewBox="0 0 330 300" fill="none" xmlns="http://www.w3.org/2000/svg">
<rect width="330" height="300" fill="#9166F0" fill-opacity="0.1"/>
<path d="M77.3649 218L73.4729 210.356H71.4569V218H67.5649V198.148H75.3209C77.2249 198.148 78.7555 198.727 79.9129 199.884C81.0702 201.041 81.6489 202.497 81.6489 204.252C81.6489 205.633 81.2662 206.828 80.5009 207.836C79.7542 208.825 78.7275 209.507 77.4209 209.88L81.6769 218H77.3649ZM71.4569 207.024H74.5929C75.5635 207.024 76.3195 206.772 76.8609 206.268C77.4209 205.764 77.7009 205.101 77.7009 204.28C77.7009 203.44 77.4209 202.768 76.8609 202.264C76.3195 201.76 75.5635 201.508 74.5929 201.508H71.4569V207.024ZM87.1181 209.544H93.2781C93.2407 208.779 92.9607 208.135 92.4381 207.612C91.9341 207.089 91.1874 206.828 90.1981 206.828C89.3021 206.828 88.5741 207.108 88.0141 207.668C87.4541 208.228 87.1554 208.853 87.1181 209.544ZM93.6421 213.128L96.7501 214.052C96.3767 215.321 95.6394 216.367 94.5381 217.188C93.4554 218.009 92.1021 218.42 90.4781 218.42C88.4994 218.42 86.8194 217.757 85.4381 216.432C84.0567 215.088 83.3661 213.296 83.3661 211.056C83.3661 208.928 84.0381 207.192 85.3821 205.848C86.7261 204.485 88.3127 203.804 90.1421 203.804C92.2701 203.804 93.9314 204.439 95.1261 205.708C96.3394 206.977 96.9461 208.723 96.9461 210.944C96.9461 211.093 96.9367 211.261 96.9181 211.448C96.9181 211.635 96.9181 211.784 96.9181 211.896L96.8901 212.092H87.0341C87.0714 212.988 87.4261 213.735 88.0981 214.332C88.7701 214.929 89.5727 215.228 90.5061 215.228C92.0927 215.228 93.1381 214.528 93.6421 213.128ZM106.067 207.248C105.077 207.248 104.247 207.593 103.575 208.284C102.903 208.975 102.567 209.917 102.567 211.112C102.567 212.307 102.903 213.259 103.575 213.968C104.265 214.659 105.105 215.004 106.095 215.004C106.972 215.004 107.672 214.78 108.195 214.332C108.717 213.865 109.072 213.315 109.259 212.68L112.535 213.772C112.199 215.041 111.471 216.133 110.351 217.048C109.231 217.963 107.812 218.42 106.095 218.42C104.041 218.42 102.315 217.729 100.915 216.348C99.5333 214.948 98.8426 213.203 98.8426 211.112C98.8426 209.003 99.524 207.257 100.887 205.876C102.268 204.495 103.967 203.804 105.983 203.804C107.737 203.804 109.175 204.261 110.295 205.176C111.415 206.072 112.133 207.164 112.451 208.452L109.119 209.572C108.671 208.023 107.653 207.248 106.067 207.248ZM118.997 218H115.273V204.224H118.997V218ZM114.825 199.716C114.825 199.081 115.049 198.54 115.497 198.092C115.945 197.625 116.486 197.392 117.121 197.392C117.756 197.392 118.297 197.616 118.745 198.064C119.193 198.512 119.417 199.063 119.417 199.716C119.417 200.332 119.193 200.864 118.745 201.312C118.297 201.76 117.756 201.984 117.121 201.984C116.486 201.984 115.945 201.76 115.497 201.312C115.049 200.864 114.825 200.332 114.825 199.716ZM125.7 209.544H131.86C131.823 208.779 131.543 208.135 131.02 207.612C130.516 207.089 129.769 206.828 128.78 206.828C127.884 206.828 127.156 207.108 126.596 207.668C126.036 208.228 125.737 208.853 125.7 209.544ZM132.224 213.128L135.332 214.052C134.959 215.321 134.221 216.367 133.12 217.188C132.037 218.009 130.684 218.42 129.06 218.42C127.081 218.42 125.401 217.757 124.02 216.432C122.639 215.088 121.948 213.296 121.948 211.056C121.948 208.928 122.62 207.192 123.964 205.848C125.308 204.485 126.895 203.804 128.724 203.804C130.852 203.804 132.513 204.439 133.708 205.708C134.921 206.977 135.528 208.723 135.528 210.944C135.528 211.093 135.519 211.261 135.5 211.448C135.5 211.635 135.5 211.784 135.5 211.896L135.472 212.092H125.616C125.653 212.988 126.008 213.735 126.68 214.332C127.352 214.929 128.155 215.228 129.088 215.228C130.675 215.228 131.72 214.528 132.224 213.128ZM151.179 204.224L145.831 218H142.107L136.479 204.224H140.567L143.983 213.464L147.259 204.224H151.179ZM155.751 209.544H161.911C161.874 208.779 161.594 208.135 161.071 207.612C160.567 207.089 159.82 206.828 158.831 206.828C157.935 206.828 157.207 207.108 156.647 207.668C156.087 208.228 155.788 208.853 155.751 209.544ZM162.275 213.128L165.383 214.052C165.01 215.321 164.272 216.367 163.171 217.188C162.088 218.009 160.735 218.42 159.111 218.42C157.132 218.42 155.452 217.757 154.071 216.432C152.69 215.088 151.999 213.296 151.999 211.056C151.999 208.928 152.671 207.192 154.015 205.848C155.359 204.485 156.946 203.804 158.775 203.804C160.903 203.804 162.564 204.439 163.759 205.708C164.972 206.977 165.579 208.723 165.579 210.944C165.579 211.093 165.57 211.261 165.551 211.448C165.551 211.635 165.551 211.784 165.551 211.896L165.523 212.092H155.667C155.704 212.988 156.059 213.735 156.731 214.332C157.403 214.929 158.206 215.228 159.139 215.228C160.726 215.228 161.771 214.528 162.275 213.128ZM197.857 218H194.049V204.084L188.337 218H185.117L179.405 204.196V218H175.709V198.148H180.805L186.769 212.484L192.593 198.148H197.857V218ZM205.731 213.996C206.422 214.687 207.252 215.032 208.223 215.032C209.194 215.032 210.015 214.687 210.687 213.996C211.378 213.305 211.723 212.344 211.723 211.112C211.723 209.88 211.378 208.919 210.687 208.228C210.015 207.537 209.194 207.192 208.223 207.192C207.252 207.192 206.422 207.537 205.731 208.228C205.059 208.919 204.723 209.88 204.723 211.112C204.723 212.344 205.059 213.305 205.731 213.996ZM203.043 205.876C204.424 204.495 206.151 203.804 208.223 203.804C210.295 203.804 212.012 204.495 213.375 205.876C214.756 207.257 215.447 209.003 215.447 211.112C215.447 213.221 214.756 214.967 213.375 216.348C212.012 217.729 210.295 218.42 208.223 218.42C206.151 218.42 204.424 217.729 203.043 216.348C201.68 214.967 200.999 213.221 200.999 211.112C200.999 209.003 201.68 207.257 203.043 205.876ZM222.11 210.076V218H218.386V204.224H221.998V205.932C222.39 205.26 222.95 204.747 223.678 204.392C224.406 204.037 225.172 203.86 225.974 203.86C227.598 203.86 228.83 204.373 229.67 205.4C230.529 206.408 230.958 207.715 230.958 209.32V218H227.234V209.964C227.234 209.143 227.02 208.48 226.59 207.976C226.18 207.472 225.545 207.22 224.686 207.22C223.902 207.22 223.277 207.491 222.81 208.032C222.344 208.573 222.11 209.255 222.11 210.076ZM237.454 209.544H243.614C243.577 208.779 243.297 208.135 242.774 207.612C242.27 207.089 241.523 206.828 240.534 206.828C239.638 206.828 238.91 207.108 238.35 207.668C237.79 208.228 237.491 208.853 237.454 209.544ZM243.978 213.128L247.086 214.052C246.713 215.321 245.975 216.367 244.874 217.188C243.791 218.009 242.438 218.42 240.814 218.42C238.835 218.42 237.155 217.757 235.774 216.432C234.393 215.088 233.702 213.296 233.702 211.056C233.702 208.928 234.374 207.192 235.718 205.848C237.062 204.485 238.649 203.804 240.478 203.804C242.606 203.804 244.267 204.439 245.462 205.708C246.675 206.977 247.282 208.723 247.282 210.944C247.282 211.093 247.273 211.261 247.254 211.448C247.254 211.635 247.254 211.784 247.254 211.896L247.226 212.092H237.37C237.407 212.988 237.762 213.735 238.434 214.332C239.106 214.929 239.909 215.228 240.842 215.228C242.429 215.228 243.474 214.528 243.978 213.128ZM254.783 223.432H250.835L254.083 216.264L248.231 204.224H252.403L256.071 212.288L259.459 204.224H263.435L254.783 223.432Z" fill="#161828"/>
<path d="M200 109.725V121.893C199.856 125.521 194.675 125.518 194.531 121.893V116.491L185.829 125.194C185.317 125.706 184.621 125.995 183.896 125.995H170.098L151.896 144.197C150.828 145.265 149.096 145.265 148.029 144.197C146.961 143.129 146.961 141.398 148.029 140.33L167.032 121.327C167.545 120.814 168.24 120.526 168.966 120.526H182.763L190.829 112.46H184.961C181.333 112.315 181.336 107.134 184.961 106.991H197.266C198.776 106.991 200 108.215 200 109.725ZM197.266 130.096C195.756 130.096 194.531 131.32 194.531 132.83V142.264C194.676 145.892 199.857 145.889 200 142.264V132.83C200 131.32 198.776 130.096 197.266 130.096ZM186.328 130.096C184.818 130.096 183.594 131.32 183.594 132.83V142.264C183.739 145.892 188.92 145.889 189.063 142.264V132.83C189.063 131.32 187.839 130.096 186.328 130.096ZM175.391 130.096C173.881 130.096 172.657 131.32 172.657 132.83V142.264C172.801 145.892 177.982 145.889 178.126 142.264V132.83C178.126 131.32 176.901 130.096 175.391 130.096ZM164.454 138.436C162.944 138.436 161.72 139.66 161.72 141.17V142.264C161.864 145.892 167.045 145.889 167.188 142.264V141.17C167.188 139.66 165.964 138.436 164.454 138.436ZM158.849 121.346C160.359 121.346 161.583 120.122 161.583 118.612V116.932C170.154 113.76 168.085 101.15 158.849 100.976C155.213 100.827 155.231 95.6766 158.849 95.5265C159.946 95.5265 160.823 96.1081 161.253 97.1224C161.844 98.5124 163.449 99.1607 164.839 98.5707C166.229 97.9807 166.877 96.3754 166.287 94.9852C165.372 92.8291 163.671 91.2523 161.583 90.5181V88.671C161.439 85.0431 156.257 85.0459 156.114 88.671V90.5263C147.555 93.699 149.596 106.269 158.849 106.444C162.464 106.594 162.487 111.782 158.849 111.932C157.785 111.932 156.731 111.238 156.284 110.245C155.665 108.867 154.047 108.253 152.669 108.872C151.292 109.491 150.677 111.109 151.296 112.487C152.229 114.563 154.018 116.158 156.114 116.916V118.612C156.114 120.122 157.339 121.346 158.849 121.346ZM149.415 130.708C150.514 130.708 151.551 130.04 151.968 128.952C152.509 127.542 151.804 125.96 150.394 125.42C126.587 115.806 132.981 80.8963 158.712 80.4682C170.028 80.4682 179.656 88.5437 181.604 99.6699C181.865 101.157 183.282 102.152 184.769 101.892C186.257 101.631 187.251 100.214 186.991 98.7266C185.84 92.1547 182.39 86.146 177.275 81.8076C158.843 66.0531 129.919 79.4342 130.002 103.71C129.864 115.381 137.522 126.472 148.436 130.526C148.759 130.649 149.089 130.708 149.415 130.708Z" fill="#8F5CFF"/>
</svg>
