<svg width="230" height="200" viewBox="0 0 330 300" fill="none" xmlns="http://www.w3.org/2000/svg">
<rect width="330" height="300" fill="#FE6C9D" fill-opacity="0.1"/>
<path d="M99.6396 202.88L96.1676 203.944C96.037 203.235 95.6823 202.591 95.1036 202.012C94.525 201.433 93.6756 201.144 92.5556 201.144C91.641 201.144 90.8943 201.396 90.3156 201.9C89.737 202.385 89.4476 202.973 89.4476 203.664C89.4476 204.877 90.1663 205.624 91.6036 205.904L94.3756 206.436C96.1303 206.772 97.493 207.472 98.4636 208.536C99.4343 209.6 99.9196 210.851 99.9196 212.288C99.9196 213.931 99.2663 215.368 97.9596 216.6C96.6716 217.813 94.9356 218.42 92.7516 218.42C91.501 218.42 90.3716 218.233 89.3636 217.86C88.3556 217.487 87.5436 216.992 86.9276 216.376C86.3116 215.741 85.8263 215.079 85.4716 214.388C85.1356 213.679 84.9303 212.951 84.8556 212.204L88.4396 211.252C88.533 212.316 88.9436 213.203 89.6716 213.912C90.4183 214.621 91.4543 214.976 92.7796 214.976C93.7876 214.976 94.5716 214.752 95.1316 214.304C95.7103 213.856 95.9996 213.268 95.9996 212.54C95.9996 211.961 95.785 211.467 95.3556 211.056C94.945 210.627 94.357 210.337 93.5916 210.188L90.8196 209.628C89.2143 209.292 87.945 208.629 87.0116 207.64C86.0783 206.651 85.6116 205.419 85.6116 203.944C85.6116 202.189 86.2836 200.715 87.6276 199.52C88.9903 198.325 90.6236 197.728 92.5276 197.728C93.6663 197.728 94.6836 197.887 95.5796 198.204C96.4756 198.521 97.1943 198.951 97.7356 199.492C98.277 200.015 98.697 200.556 98.9956 201.116C99.2943 201.676 99.509 202.264 99.6396 202.88ZM105.509 209.544H111.669C111.631 208.779 111.351 208.135 110.829 207.612C110.325 207.089 109.578 206.828 108.589 206.828C107.693 206.828 106.965 207.108 106.405 207.668C105.845 208.228 105.546 208.853 105.509 209.544ZM112.033 213.128L115.141 214.052C114.767 215.321 114.03 216.367 112.929 217.188C111.846 218.009 110.493 218.42 108.869 218.42C106.89 218.42 105.21 217.757 103.829 216.432C102.447 215.088 101.757 213.296 101.757 211.056C101.757 208.928 102.429 207.192 103.773 205.848C105.117 204.485 106.703 203.804 108.533 203.804C110.661 203.804 112.322 204.439 113.517 205.708C114.73 206.977 115.337 208.723 115.337 210.944C115.337 211.093 115.327 211.261 115.309 211.448C115.309 211.635 115.309 211.784 115.309 211.896L115.281 212.092H105.425C105.462 212.988 105.817 213.735 106.489 214.332C107.161 214.929 107.963 215.228 108.897 215.228C110.483 215.228 111.529 214.528 112.033 213.128ZM121.993 210.076V218H118.269V204.224H121.881V205.932C122.273 205.26 122.833 204.747 123.561 204.392C124.289 204.037 125.055 203.86 125.857 203.86C127.481 203.86 128.713 204.373 129.553 205.4C130.412 206.408 130.841 207.715 130.841 209.32V218H127.117V209.964C127.117 209.143 126.903 208.48 126.473 207.976C126.063 207.472 125.428 207.22 124.569 207.22C123.785 207.22 123.16 207.491 122.693 208.032C122.227 208.573 121.993 209.255 121.993 210.076ZM147.753 197.728V215.508C147.753 216.423 147.79 217.253 147.865 218H144.309C144.215 217.533 144.169 217.001 144.169 216.404C143.851 216.983 143.347 217.449 142.657 217.804C141.985 218.159 141.201 218.336 140.305 218.336C138.345 218.336 136.73 217.655 135.461 216.292C134.21 214.911 133.585 213.175 133.585 211.084C133.585 209.049 134.201 207.341 135.433 205.96C136.683 204.579 138.27 203.888 140.193 203.888C142.171 203.888 143.469 204.457 144.085 205.596V197.728H147.753ZM137.337 211.084C137.337 212.297 137.654 213.259 138.289 213.968C138.923 214.659 139.745 215.004 140.753 215.004C141.742 215.004 142.554 214.649 143.189 213.94C143.823 213.231 144.141 212.269 144.141 211.056C144.141 209.861 143.823 208.928 143.189 208.256C142.554 207.565 141.742 207.22 140.753 207.22C139.763 207.22 138.942 207.565 138.289 208.256C137.654 208.947 137.337 209.889 137.337 211.084ZM181.139 218H177.331V204.084L171.619 218H168.399L162.687 204.196V218H158.991V198.148H164.087L170.051 212.484L175.875 198.148H181.139V218ZM189.012 213.996C189.703 214.687 190.533 215.032 191.504 215.032C192.475 215.032 193.296 214.687 193.968 213.996C194.659 213.305 195.004 212.344 195.004 211.112C195.004 209.88 194.659 208.919 193.968 208.228C193.296 207.537 192.475 207.192 191.504 207.192C190.533 207.192 189.703 207.537 189.012 208.228C188.34 208.919 188.004 209.88 188.004 211.112C188.004 212.344 188.34 213.305 189.012 213.996ZM186.324 205.876C187.705 204.495 189.432 203.804 191.504 203.804C193.576 203.804 195.293 204.495 196.656 205.876C198.037 207.257 198.728 209.003 198.728 211.112C198.728 213.221 198.037 214.967 196.656 216.348C195.293 217.729 193.576 218.42 191.504 218.42C189.432 218.42 187.705 217.729 186.324 216.348C184.961 214.967 184.28 213.221 184.28 211.112C184.28 209.003 184.961 207.257 186.324 205.876ZM205.392 210.076V218H201.668V204.224H205.28V205.932C205.672 205.26 206.232 204.747 206.96 204.392C207.688 204.037 208.453 203.86 209.256 203.86C210.88 203.86 212.112 204.373 212.952 205.4C213.81 206.408 214.24 207.715 214.24 209.32V218H210.516V209.964C210.516 209.143 210.301 208.48 209.872 207.976C209.461 207.472 208.826 207.22 207.968 207.22C207.184 207.22 206.558 207.491 206.092 208.032C205.625 208.573 205.392 209.255 205.392 210.076ZM220.735 209.544H226.895C226.858 208.779 226.578 208.135 226.055 207.612C225.551 207.089 224.805 206.828 223.815 206.828C222.919 206.828 222.191 207.108 221.631 207.668C221.071 208.228 220.773 208.853 220.735 209.544ZM227.259 213.128L230.367 214.052C229.994 215.321 229.257 216.367 228.155 217.188C227.073 218.009 225.719 218.42 224.095 218.42C222.117 218.42 220.437 217.757 219.055 216.432C217.674 215.088 216.983 213.296 216.983 211.056C216.983 208.928 217.655 207.192 218.999 205.848C220.343 204.485 221.93 203.804 223.759 203.804C225.887 203.804 227.549 204.439 228.743 205.708C229.957 206.977 230.563 208.723 230.563 210.944C230.563 211.093 230.554 211.261 230.535 211.448C230.535 211.635 230.535 211.784 230.535 211.896L230.507 212.092H220.651C220.689 212.988 221.043 213.735 221.715 214.332C222.387 214.929 223.19 215.228 224.123 215.228C225.71 215.228 226.755 214.528 227.259 213.128ZM238.064 223.432H234.116L237.364 216.264L231.512 204.224H235.684L239.352 212.288L242.74 204.224H246.716L238.064 223.432Z" fill="#161828"/>
<path d="M175 117.5C173.619 117.5 172.5 118.619 172.5 120C172.5 124.142 169.142 127.5 165 127.5C160.858 127.5 157.5 124.142 157.5 120C157.5 118.619 156.381 117.5 155 117.5C153.619 117.5 152.5 118.619 152.5 120C152.5 126.903 158.096 132.5 165 132.5C171.903 132.5 177.5 126.903 177.5 120C177.5 118.619 176.381 117.5 175 117.5Z" fill="#FB6094"/>
<path d="M176.768 85.7319L166.768 75.732C165.791 74.756 164.209 74.756 163.233 75.732L153.232 85.7321C152.273 86.7253 152.301 88.3079 153.294 89.2671C154.263 90.2028 155.799 90.2028 156.768 89.2671L162.5 83.5345V117.5C162.5 118.88 163.619 120 165 120C166.381 120 167.5 118.88 167.5 117.5V83.5345L173.233 89.2671C173.701 89.736 174.337 89.9995 175 89.9996C176.381 89.9993 177.5 88.8798 177.5 87.4991C177.499 86.8363 177.236 86.2007 176.768 85.7319Z" fill="#FB6094"/>
<path d="M197.5 94.9997H175C173.619 94.9997 172.5 96.1189 172.5 97.4997C172.5 98.8805 173.619 99.9998 175 99.9998H182.725C183.799 106.281 188.719 111.201 195 112.275V127.725C188.719 128.798 183.799 133.718 182.725 140H147.275C146.202 133.718 141.281 128.798 135 127.725V112.275C141.281 111.201 146.202 106.281 147.275 99.9996H155C156.381 99.9996 157.5 98.8803 157.5 97.4996C157.5 96.1188 156.381 94.9995 155 94.9995H132.5C131.119 94.9997 130 96.1189 130 97.4996V142.5C130 143.88 131.119 145 132.5 145H197.5C198.881 145 200 143.88 200 142.5V97.4996C200 96.1189 198.881 94.9997 197.5 94.9997ZM135 99.9996H142.145C141.23 103.498 138.498 106.23 135 107.145V99.9996ZM135 140V132.855C138.498 133.769 141.23 136.501 142.145 140H135ZM195 140H187.855C188.77 136.501 191.502 133.769 195 132.855V140ZM195 107.145C191.502 106.23 188.77 103.498 187.855 99.9995H195V107.145Z" fill="#FB6094"/>
</svg>
