<svg width="140" height="40" viewBox="0 0 219 60" fill="none" xmlns="http://www.w3.org/2000/svg">
<path d="M88.816 27.312L87.088 27.856C87.0133 27.4187 86.7947 27.0187 86.432 26.656C86.0693 26.2933 85.5467 26.112 84.864 26.112C84.2987 26.112 83.8293 26.272 83.456 26.592C83.0933 26.912 82.912 27.296 82.912 27.744C82.912 28.5227 83.3547 29.008 84.24 29.2L85.872 29.536C86.8533 29.728 87.6107 30.1173 88.144 30.704C88.6773 31.2907 88.944 31.9893 88.944 32.8C88.944 33.7387 88.5813 34.5493 87.856 35.232C87.1413 35.904 86.1653 36.24 84.928 36.24C83.5947 36.24 82.5547 35.8933 81.808 35.2C81.0613 34.496 80.64 33.68 80.544 32.752L82.336 32.24C82.4 32.88 82.656 33.4187 83.104 33.856C83.552 34.2933 84.16 34.512 84.928 34.512C85.5893 34.512 86.096 34.368 86.448 34.08C86.8107 33.7813 86.992 33.4027 86.992 32.944C86.992 32.5707 86.8587 32.2507 86.592 31.984C86.3253 31.7067 85.952 31.5147 85.472 31.408L83.872 31.072C82.9867 30.8907 82.2827 30.5227 81.76 29.968C81.248 29.4133 80.992 28.72 80.992 27.888C80.992 26.9387 81.3707 26.1227 82.128 25.44C82.8853 24.7573 83.792 24.416 84.848 24.416C86.0533 24.416 86.976 24.7093 87.616 25.296C88.256 25.872 88.656 26.544 88.816 27.312ZM91.9648 31.248H95.7888C95.7674 30.7573 95.5914 30.3467 95.2608 30.016C94.9408 29.6853 94.4768 29.52 93.8688 29.52C93.3141 29.52 92.8661 29.696 92.5248 30.048C92.1834 30.3893 91.9968 30.7893 91.9648 31.248ZM95.9968 33.28L97.5648 33.776C97.3408 34.4907 96.9194 35.0827 96.3008 35.552C95.6928 36.0107 94.9408 36.24 94.0448 36.24C92.9354 36.24 91.9914 35.8613 91.2128 35.104C90.4448 34.3467 90.0608 33.3333 90.0608 32.064C90.0608 30.8693 90.4341 29.888 91.1808 29.12C91.9381 28.352 92.8288 27.968 93.8528 27.968C95.0474 27.968 95.9808 28.336 96.6528 29.072C97.3248 29.7973 97.6608 30.7787 97.6608 32.016C97.6608 32.3467 97.6448 32.544 97.6128 32.608H91.9168C91.9381 33.1947 92.1514 33.68 92.5568 34.064C92.9728 34.448 93.4688 34.64 94.0448 34.64C95.0474 34.64 95.6981 34.1867 95.9968 33.28ZM100.73 31.248H104.554C104.533 30.7573 104.357 30.3467 104.026 30.016C103.706 29.6853 103.242 29.52 102.634 29.52C102.08 29.52 101.632 29.696 101.29 30.048C100.949 30.3893 100.762 30.7893 100.73 31.248ZM104.762 33.28L106.33 33.776C106.106 34.4907 105.685 35.0827 105.066 35.552C104.458 36.0107 103.706 36.24 102.81 36.24C101.701 36.24 100.757 35.8613 99.9784 35.104C99.2104 34.3467 98.8264 33.3333 98.8264 32.064C98.8264 30.8693 99.1997 29.888 99.9464 29.12C100.704 28.352 101.594 27.968 102.618 27.968C103.813 27.968 104.746 28.336 105.418 29.072C106.09 29.7973 106.426 30.7787 106.426 32.016C106.426 32.3467 106.41 32.544 106.378 32.608H100.682C100.704 33.1947 100.917 33.68 101.322 34.064C101.738 34.448 102.234 34.64 102.81 34.64C103.813 34.64 104.464 34.1867 104.762 33.28ZM121.513 36H119.577V31.152H114.249V36H112.329V24.656H114.249V29.344H119.577V24.656H121.513V36ZM125.916 33.92C126.342 34.3573 126.86 34.576 127.468 34.576C128.076 34.576 128.588 34.3573 129.004 33.92C129.43 33.4827 129.644 32.8747 129.644 32.096C129.644 31.328 129.43 30.7307 129.004 30.304C128.588 29.8667 128.076 29.648 127.468 29.648C126.86 29.648 126.342 29.8667 125.916 30.304C125.5 30.7307 125.292 31.328 125.292 32.096C125.292 32.864 125.5 33.472 125.916 33.92ZM127.468 27.968C128.641 27.968 129.606 28.3573 130.364 29.136C131.132 29.9147 131.516 30.9013 131.516 32.096C131.516 33.2907 131.132 34.2827 130.364 35.072C129.606 35.8507 128.641 36.24 127.468 36.24C126.305 36.24 125.34 35.8507 124.572 35.072C123.814 34.2827 123.436 33.2907 123.436 32.096C123.436 30.9013 123.814 29.9147 124.572 29.136C125.34 28.3573 126.305 27.968 127.468 27.968ZM137.538 28.208H139.458L141.298 33.6L142.85 28.208H144.738L142.242 36H140.386L138.45 30.4L136.562 36H134.658L132.13 28.208H134.114L135.698 33.6L137.538 28.208ZM152.234 36H150.282V24.656H152.234V36ZM157.146 25.824V28.208H158.762V29.856H157.146V33.472C157.146 33.8133 157.226 34.064 157.386 34.224C157.546 34.3733 157.796 34.448 158.138 34.448C158.351 34.448 158.564 34.4267 158.778 34.384V35.92C158.5 36.0373 158.122 36.096 157.642 36.096C156.916 36.096 156.346 35.8933 155.93 35.488C155.514 35.072 155.306 34.5013 155.306 33.776V29.856H153.866V28.208H154.266C154.66 28.208 154.959 28.096 155.162 27.872C155.364 27.648 155.466 27.3547 155.466 26.992V25.824H157.146ZM175.262 33.008L177.486 24.656H179.47L176.286 36H174.302L171.55 27.424L168.798 36H166.83L163.614 24.656H165.63L167.902 32.944L170.558 24.656H172.558L175.262 33.008ZM182.15 33.92C182.577 34.3573 183.094 34.576 183.702 34.576C184.31 34.576 184.822 34.3573 185.238 33.92C185.665 33.4827 185.878 32.8747 185.878 32.096C185.878 31.328 185.665 30.7307 185.238 30.304C184.822 29.8667 184.31 29.648 183.702 29.648C183.094 29.648 182.577 29.8667 182.15 30.304C181.734 30.7307 181.526 31.328 181.526 32.096C181.526 32.864 181.734 33.472 182.15 33.92ZM183.702 27.968C184.875 27.968 185.841 28.3573 186.598 29.136C187.366 29.9147 187.75 30.9013 187.75 32.096C187.75 33.2907 187.366 34.2827 186.598 35.072C185.841 35.8507 184.875 36.24 183.702 36.24C182.539 36.24 181.574 35.8507 180.806 35.072C180.049 34.2827 179.67 33.2907 179.67 32.096C179.67 30.9013 180.049 29.9147 180.806 29.136C181.574 28.3573 182.539 27.968 183.702 27.968ZM194.104 28.16V30.048C193.89 30.016 193.688 30 193.496 30C192.098 30 191.4 30.7627 191.4 32.288V36H189.544V28.208H191.352V29.456C191.533 29.04 191.826 28.7147 192.232 28.48C192.637 28.2347 193.096 28.112 193.608 28.112C193.778 28.112 193.944 28.128 194.104 28.16ZM202.949 28.208L199.749 31.504L203.013 36H200.741L198.453 32.816L197.493 33.824V36H195.653V24.416H197.493V31.36L200.485 28.208H202.949ZM203.668 33.888L205.284 33.44C205.316 33.8133 205.471 34.128 205.748 34.384C206.026 34.64 206.399 34.768 206.868 34.768C207.231 34.768 207.514 34.6827 207.716 34.512C207.93 34.3413 208.036 34.128 208.036 33.872C208.036 33.424 207.732 33.136 207.124 33.008L205.972 32.752C205.3 32.6027 204.783 32.3253 204.42 31.92C204.058 31.5147 203.876 31.0347 203.876 30.48C203.876 29.7973 204.154 29.2107 204.708 28.72C205.263 28.2187 205.94 27.968 206.74 27.968C207.252 27.968 207.706 28.0427 208.1 28.192C208.495 28.3413 208.799 28.5387 209.012 28.784C209.236 29.0187 209.407 29.248 209.524 29.472C209.642 29.696 209.716 29.92 209.748 30.144L208.18 30.592C208.138 30.2933 207.999 30.0267 207.764 29.792C207.54 29.5467 207.199 29.424 206.74 29.424C206.42 29.424 206.154 29.5147 205.94 29.696C205.727 29.8667 205.62 30.0747 205.62 30.32C205.62 30.7573 205.882 31.0293 206.404 31.136L207.588 31.376C208.314 31.536 208.868 31.824 209.252 32.24C209.636 32.656 209.828 33.1573 209.828 33.744C209.828 34.3947 209.567 34.976 209.044 35.488C208.532 35.9893 207.812 36.24 206.884 36.24C206.351 36.24 205.871 36.16 205.444 36C205.028 35.84 204.698 35.6373 204.452 35.392C204.218 35.136 204.031 34.8853 203.892 34.64C203.764 34.384 203.69 34.1333 203.668 33.888ZM215.142 32.64H213.542C213.521 32.3627 213.51 32.16 213.51 32.032C213.51 31.0507 213.942 30.2453 214.806 29.616L215.542 29.088C216.043 28.7253 216.294 28.2613 216.294 27.696C216.294 27.248 216.145 26.8693 215.846 26.56C215.547 26.24 215.121 26.08 214.566 26.08C214.001 26.08 213.558 26.2613 213.238 26.624C212.918 26.9867 212.758 27.4133 212.758 27.904C212.758 28.2027 212.79 28.4427 212.854 28.624L211.046 28.496C210.982 28.272 210.95 28.0267 210.95 27.76C210.95 26.8853 211.27 26.112 211.91 25.44C212.55 24.7573 213.435 24.416 214.566 24.416C215.697 24.416 216.587 24.7307 217.238 25.36C217.889 25.9893 218.214 26.7413 218.214 27.616C218.214 28.736 217.681 29.6747 216.614 30.432L215.926 30.912C215.393 31.2853 215.126 31.792 215.126 32.432C215.126 32.5067 215.131 32.576 215.142 32.64ZM213.526 35.776C213.302 35.5413 213.19 35.264 213.19 34.944C213.19 34.624 213.302 34.3467 213.526 34.112C213.761 33.8773 214.038 33.76 214.358 33.76C214.678 33.76 214.95 33.8773 215.174 34.112C215.409 34.3467 215.526 34.624 215.526 34.944C215.526 35.264 215.409 35.5413 215.174 35.776C214.95 36 214.678 36.112 214.358 36.112C214.027 36.112 213.75 36 213.526 35.776Z" fill="#161828"/>
<circle cx="30" cy="30" r="29" stroke="#9166F0" stroke-width="2"/>
<path d="M27.4036 22.3528C25.9611 21.5254 24.7916 22.2032 24.7916 23.8656V36.1332C24.7916 37.7973 25.9611 38.4743 27.4036 37.6476L38.1261 31.4983C39.5691 30.6706 39.5691 29.3295 38.1261 28.502L27.4036 22.3528Z" fill="#9166F0"/>
</svg>
